<svg width="726" height="167" viewBox="0 0 726 167" fill="none" xmlns="http://www.w3.org/2000/svg">
<g clip-path="url(#clip0_3463_3710)">
<path d="M0 163.442H54.8779V54.7267H164.294V-0.00878906H0V163.442Z" fill="#A857F1"/>
<path d="M116.966 166.712C144.308 166.712 166.472 144.514 166.472 117.131C166.472 89.7492 144.308 67.5515 116.966 67.5515C89.6252 67.5515 67.4609 89.7492 67.4609 117.131C67.4609 144.514 89.6252 166.712 116.966 166.712Z" fill="#A857F1"/>
<path d="M666.116 161.164C656.009 161.164 648.233 158.494 642.789 153.154C637.456 147.814 634.791 140.026 634.791 129.791V81.3963H614.296V53.1936H634.791V16.4805H668.951V53.1936H698.109V81.3963H668.951V122.615C668.951 126.064 669.839 128.678 671.617 130.459C673.394 132.239 676.003 133.129 679.449 133.129H698.109V161.164H666.116Z" fill="white"/>
<path d="M501.15 53.1921H532.143V62.2036C535.696 58.3097 540.029 55.306 545.139 53.1921C550.359 50.9671 556.137 49.7989 562.468 49.6876C568.689 49.5764 574.52 50.6334 579.964 52.8583C585.407 55.0835 590.128 58.1985 594.127 62.2036C598.127 66.3198 601.182 71.382 603.293 77.3896C605.515 83.286 606.626 90.5173 606.626 99.0837V161.162H572.298V102.588C572.298 98.1382 571.855 94.6892 570.967 92.2418C570.19 89.6828 568.912 87.5134 567.134 85.7334C563.912 82.6185 559.525 81.0608 553.971 81.0608C548.415 81.0608 544.028 82.6185 540.806 85.7334C538.918 87.5134 537.53 89.6828 536.64 92.2418C535.862 94.6892 535.475 98.1382 535.475 102.588V161.162H501.15V53.1921Z" fill="white"/>
<path d="M428.956 164C417.735 164 407.514 161.497 398.294 156.491C389.187 151.595 381.966 144.753 376.632 135.965C371.412 127.287 368.803 117.663 368.803 107.095C368.803 96.5256 371.412 86.8465 376.632 78.0577C381.966 69.2689 389.187 62.371 398.294 57.3648C407.514 52.2472 417.735 49.6882 428.956 49.6882C440.174 49.6882 450.338 52.2472 459.448 57.3648C468.667 62.371 475.889 69.2689 481.11 78.0577C486.33 86.8465 488.942 96.5256 488.942 107.095C488.942 117.663 486.33 127.287 481.11 135.965C475.889 144.753 468.667 151.595 459.448 156.491C450.338 161.497 440.174 164 428.956 164ZM428.956 133.628C433.619 133.628 437.786 132.46 441.451 130.124C445.228 127.787 448.173 124.617 450.284 120.612C452.393 116.607 453.45 112.101 453.45 107.095C453.45 102.088 452.393 97.5826 450.284 93.5774C448.173 89.5722 445.228 86.4573 441.451 84.2323C437.786 81.8959 433.619 80.7276 428.956 80.7276C424.179 80.7276 419.902 81.8959 416.124 84.2323C412.458 86.4573 409.569 89.5722 407.46 93.5774C405.349 97.5826 404.295 102.088 404.295 107.095C404.295 112.101 405.349 116.607 407.46 120.612C409.569 124.617 412.514 127.787 416.29 130.124C420.069 132.46 424.289 133.628 428.956 133.628Z" fill="white"/>
<path d="M292.783 53.1924H323.609V66.0421C327.275 61.4807 331.664 57.9763 336.772 55.5286C341.995 53.0812 347.603 51.8574 353.603 51.8574C357.49 51.8574 361.266 52.1912 364.932 52.8587V85.233C362.266 84.2318 358.6 83.731 353.937 83.731C345.714 83.731 339.216 86.2342 334.44 91.2407C331.885 93.7996 329.94 96.9145 328.609 100.586C327.385 104.257 326.774 108.986 326.774 114.771V161.163H292.783V53.1924Z" fill="white"/>
<path d="M194.497 -1.70996H281.811V30.8312H229.655V62.7051H280.811V94.0782H229.655V161.163H194.497V-1.70996Z" fill="white"/>
</g>
<defs>
<clipPath id="clip0_3463_3710">
<rect width="726" height="167" fill="white"/>
</clipPath>
</defs>
</svg>
