<svg width="865" height="242" fill="none" xmlns="http://www.w3.org/2000/svg"><path d="M191.929 1.53H21.941C10.21 1.53.695 11.043.695 22.778v193.633c0 11.735 9.514 21.25 21.246 21.25H191.93c11.732 0 21.246-9.515 21.246-21.25V22.779c0-11.735-9.514-21.25-21.246-21.25Zm9.444 214.882c0 5.211-4.234 9.445-9.444 9.445H21.941c-5.21 0-9.443-4.234-9.443-9.445V22.779c0-5.21 4.234-9.445 9.443-9.445H191.93c5.21 0 9.444 4.234 9.444 9.445v193.633Z" fill="#fff"/><path d="m53.817 202.241 26.561-23.609-26.56-23.616v47.225ZM149.782 106.534c-4.76-4.817-13.495-10.555-28.085-10.555-16.008 0-32.48 4.165-44.268 7.999V36.943H53.817v102.399l16.676-7.556c.266-.119 27.192-12.197 51.197-12.197 11.985 0 14.639 6.622 14.759 12.134v70.518h23.612V131.4c.014-1.51-.127-14.599-10.279-24.866ZM118.741 75.32h23.612c10.679-12.107 16.114-24.964 17.707-38.37h-23.612c-2.604 13.384-8.432 26.193-17.707 38.37ZM290.281 169.573l-1.306 4.2a17.362 17.362 0 0 0-4.269-.415c-4.311.049-6.466 2.409-6.466 7.086v2.893h8.811v4.473h-8.811v30.561h-5.849V187.81h-6.122v-3.715l6.122-.758v-3.027c0-3.714.983-6.573 2.956-8.567 1.973-1.994 4.908-3.019 8.811-3.062 2.247 0 4.29.295 6.123.892ZM293.447 191.188c0-2.57-.161-5.182-.484-7.844h5.575c.231 1.559.386 3.42.484 5.576h.141c2.015-4.361 5.687-6.538 11.009-6.538.365 0 1.032.07 1.994.204l-.344 5.021c-.457-.092-1.173-.141-2.135-.141-3.349 0-5.919 1.124-7.709 3.371s-2.682 5.161-2.682 8.743v18.791h-5.849v-27.19.007ZM349.462 200.752c0 3.624-.702 6.847-2.1 9.67-1.397 2.823-3.419 5.014-6.052 6.573-2.64 1.559-5.792 2.339-9.464 2.339-3.672 0-6.769-.794-9.43-2.374-2.661-1.58-4.683-3.771-6.059-6.573-1.376-2.795-2.064-6.011-2.064-9.635 0-5.596 1.538-10.056 4.613-13.384 3.075-3.329 7.386-4.993 12.94-4.993 3.714 0 6.887.772 9.527 2.303 2.64 1.538 4.648 3.68 6.024 6.433 1.377 2.753 2.065 5.962 2.065 9.634v.007Zm-29.11 0c0 4.179.955 7.535 2.858 10.084 1.902 2.55 4.781 3.821 8.636 3.821 3.854 0 6.81-1.271 8.741-3.821 1.924-2.549 2.893-5.905 2.893-10.084 0-4.178-.962-7.499-2.893-9.978-1.931-2.479-4.845-3.715-8.741-3.715-3.897 0-6.79 1.236-8.671 3.715-1.882 2.479-2.823 5.807-2.823 9.978ZM357.03 191.188c0-2.57-.161-5.182-.484-7.844h5.575c.231 1.236.386 2.893.484 4.958h.141c1.102-1.742 2.646-3.167 4.648-4.27 1.994-1.102 4.303-1.65 6.915-1.65 2.984 0 5.414.632 7.295 1.896 1.882 1.264 3.258 2.992 4.129 5.197h.14c1.194-2.205 2.823-3.933 4.887-5.197 2.064-1.264 4.542-1.896 7.428-1.896s5.301.632 7.225 1.896c1.931 1.264 3.349 2.914 4.269 4.958.912 2.043 1.376 4.276 1.376 6.713v22.437h-5.849v-21.615c0-2.711-.653-4.979-1.959-6.812-1.306-1.833-3.405-2.753-6.298-2.753-2.113 0-3.917.548-5.434 1.651-1.517 1.102-2.661 2.57-3.44 4.403-.78 1.832-1.173 3.806-1.173 5.919v19.207h-5.848v-21.749c0-2.661-.667-4.894-1.994-6.713-1.334-1.812-3.42-2.718-6.263-2.718-3.026 0-5.435 1.068-7.225 3.203-1.79 2.134-2.682 4.761-2.682 7.879v20.098h-5.849v-27.191l-.014-.007ZM526.534 213.828l3.097-3.855c1.972 1.559 4.016 2.682 6.122 3.37 2.113.689 4.493 1.033 7.154 1.033 3.3 0 5.975-.766 8.018-2.304 2.044-1.537 3.062-3.771 3.062-6.713 0-2.064-.485-3.736-1.447-5.021-.962-1.285-2.296-2.317-3.988-3.097-1.699-.779-3.945-1.538-6.747-2.268-4.543-1.194-7.934-2.809-10.181-4.852-2.246-2.044-3.37-4.895-3.37-8.568 0-4.08 1.524-7.268 4.578-9.564 3.054-2.296 6.937-3.441 11.662-3.441 2.984 0 5.673.393 8.089 1.173a23.472 23.472 0 0 1 6.712 3.441l-2.753 3.988c-1.923-1.235-3.84-2.155-5.743-2.752-1.903-.597-4.002-.892-6.298-.892-3.075 0-5.554.653-7.435 1.959-1.882 1.306-2.823 3.202-2.823 5.681s.864 4.347 2.577 5.611c1.72 1.264 4.529 2.402 8.432 3.406 4.908 1.285 8.622 3.026 11.15 5.231 2.521 2.205 3.784 5.464 3.784 9.775 0 3.118-.772 5.759-2.303 7.915-1.537 2.156-3.608 3.778-6.227 4.852-2.619 1.074-5.554 1.615-8.812 1.615-6.333 0-11.767-1.903-16.31-5.709v-.014ZM565.41 208.807c0-4.543 1.642-7.696 4.921-9.466 3.279-1.763 8.222-2.647 14.829-2.647 1.601 0 2.822.021 3.644.07v-1.995c0-2.612-.709-4.564-2.135-5.849-1.418-1.285-3.601-1.924-6.536-1.924-3.714 0-7.225.99-10.532 2.956l-2.064-3.925c3.946-2.43 8.257-3.652 12.933-3.652 4.908 0 8.495 1.145 10.77 3.441 2.275 2.296 3.405 5.779 3.405 10.463v14.319c0 2.521.162 5.119.485 7.773h-5.371c-.323-2.015-.485-3.602-.485-4.747h-.203c-1.285 1.882-2.9 3.301-4.852 4.27-1.952.962-4.458 1.446-7.534 1.446-3.398 0-6.122-.905-8.193-2.717-2.064-1.812-3.096-4.417-3.096-7.809l.014-.007Zm23.401-3.378v-4.543l-3.096-.07c-3.441 0-6.186.231-8.222.688-2.043.456-3.553 1.236-4.543 2.338-.99 1.103-1.481 2.641-1.481 4.614 0 1.973.597 3.567 1.79 4.649 1.194 1.081 2.844 1.615 4.957 1.615s4.107-.471 5.715-1.412c1.608-.941 2.823-2.12 3.644-3.546.829-1.425 1.243-2.865 1.243-4.34l-.007.007ZM611.517 169.644v48.727h-5.848v-48.727h5.848ZM652.394 202.957h-26.013c.231 3.582 1.306 6.426 3.236 8.533 1.931 2.113 4.684 3.167 8.257 3.167 2.114 0 4.002-.288 5.68-.864 1.671-.576 3.363-1.433 5.055-2.584l2.619 3.785a23.107 23.107 0 0 1-6.298 3.237c-2.225.73-4.69 1.103-7.4 1.103-5.371 0-9.556-1.7-12.561-5.092-3.005-3.391-4.507-7.914-4.507-13.56 0-3.623.639-6.811 1.931-9.564 1.285-2.753 3.152-4.895 5.61-6.433 2.45-1.537 5.399-2.303 8.839-2.303 5.09 0 8.98 1.65 11.662 4.958 2.682 3.3 4.023 7.689 4.023 13.146 0 1.102-.049 1.924-.14 2.478l.007-.007Zm-5.575-4.543c-.091-3.483-.99-6.285-2.682-8.399-1.699-2.106-4.149-3.167-7.365-3.167s-5.778 1.089-7.569 3.273c-1.79 2.177-2.752 4.943-2.893 8.293h20.509ZM682.599 186.09l-2.619 3.644c-2.71-1.882-5.645-2.823-8.811-2.823-2.205 0-3.918.422-5.161 1.271-1.242.85-1.86 2.058-1.86 3.617 0 1.144.253 2.085.758 2.823.506.737 1.348 1.355 2.549 1.861 1.193.505 2.934 1.032 5.23 1.58 3.581.87 6.228 2.149 7.948 3.82 1.72 1.671 2.584 3.869 2.584 6.573 0 3.441-1.285 6.116-3.855 8.019-2.569 1.903-5.736 2.858-9.492 2.858-5.048 0-9.268-1.355-12.659-4.059l2.682-3.644c1.559 1.053 3.096 1.833 4.613 2.338 1.516.506 3.237.759 5.16.759 2.338 0 4.185-.506 5.54-1.517 1.355-1.011 2.029-2.451 2.029-4.333 0-1.236-.253-2.24-.758-2.991-.506-.759-1.341-1.391-2.514-1.889-1.172-.506-2.928-1.054-5.266-1.651-3.622-.92-6.262-2.156-7.912-3.714-1.65-1.559-2.479-3.715-2.479-6.468 0-2.985 1.159-5.358 3.476-7.128 2.317-1.762 5.378-2.647 9.19-2.647 4.494 0 8.369 1.236 11.627 3.715v-.014ZM711.919 169.573l-1.306 4.2a17.35 17.35 0 0 0-4.268-.415c-4.311.049-6.467 2.409-6.467 7.086v2.893h8.812v4.473h-8.812v30.561h-5.848V187.81h-6.123v-3.715l6.123-.758v-3.027c0-3.714.983-6.573 2.955-8.567 1.973-1.994 4.908-3.019 8.812-3.062 2.247 0 4.29.295 6.122.892ZM747.769 200.752c0 3.624-.702 6.847-2.099 9.67-1.397 2.823-3.419 5.014-6.052 6.573-2.64 1.559-5.793 2.339-9.465 2.339-3.672 0-6.768-.794-9.429-2.374-2.661-1.58-4.683-3.771-6.059-6.573-1.376-2.795-2.064-6.011-2.064-9.635 0-5.596 1.537-10.056 4.612-13.384 3.076-3.329 7.387-4.993 12.94-4.993 3.715 0 6.888.772 9.528 2.303 2.64 1.538 4.648 3.68 6.024 6.433 1.376 2.753 2.064 5.962 2.064 9.634v.007Zm-29.109 0c0 4.179.955 7.535 2.857 10.084 1.903 2.55 4.782 3.821 8.636 3.821 3.855 0 6.811-1.271 8.742-3.821 1.923-2.549 2.892-5.905 2.892-10.084 0-4.178-.962-7.499-2.892-9.978-1.931-2.479-4.845-3.715-8.742-3.715-3.896 0-6.789 1.236-8.671 3.715-1.881 2.479-2.822 5.807-2.822 9.978ZM755.338 191.188c0-2.57-.162-5.182-.484-7.844h5.574c.232 1.559.386 3.42.485 5.576h.14c2.015-4.361 5.687-6.538 11.009-6.538.365 0 1.032.07 1.994.204l-.344 5.021c-.456-.092-1.172-.141-2.134-.141-3.349 0-5.919 1.124-7.709 3.371-1.791 2.247-2.682 5.161-2.682 8.743v18.791h-5.849v-27.19.007ZM793.532 182.375c2.205 0 4.304.337 6.298.997 1.994.667 3.77 1.594 5.329 2.788l-2.338 4.059c-2.661-1.973-5.757-2.956-9.289-2.956-3.763 0-6.607 1.228-8.53 3.679-1.924 2.458-2.893 5.744-2.893 9.874 0 4.129.962 7.31 2.893 9.81 1.93 2.5 4.746 3.75 8.467 3.75 3.166 0 6.305-.99 9.429-2.957l2.135 4.129c-3.483 2.521-7.478 3.786-11.971 3.786-3.946 0-7.183-.885-9.703-2.648-2.521-1.763-4.346-4.045-5.47-6.847-1.123-2.795-1.685-5.807-1.685-9.016 0-5.597 1.538-10.07 4.613-13.42 3.075-3.35 7.316-5.028 12.729-5.028h-.014ZM841.22 202.957h-26.013c.232 3.582 1.306 6.426 3.237 8.533 1.93 2.113 4.683 3.167 8.256 3.167 2.114 0 4.002-.288 5.681-.864 1.671-.576 3.363-1.433 5.055-2.584l2.619 3.785a23.122 23.122 0 0 1-6.298 3.237c-2.226.73-4.691 1.103-7.401 1.103-5.371 0-9.555-1.7-12.56-5.092-3.005-3.391-4.508-7.914-4.508-13.56 0-3.623.639-6.811 1.931-9.564 1.285-2.753 3.152-4.895 5.61-6.433 2.45-1.537 5.399-2.303 8.839-2.303 5.091 0 8.98 1.65 11.662 4.958 2.682 3.3 4.023 7.689 4.023 13.146 0 1.102-.049 1.924-.14 2.478l.007-.007Zm-5.575-4.543c-.091-3.483-.99-6.285-2.682-8.399-1.699-2.106-4.149-3.167-7.365-3.167s-5.778 1.089-7.569 3.273c-1.79 2.177-2.752 4.943-2.892 8.293h20.508Z" fill="#fff"/><path d="M463.772 174.608a14.43 14.43 0 0 1 4.943-3.448 14.51 14.51 0 0 1 5.876-1.25 14.98 14.98 0 0 1 7.66 2.149 15.246 15.246 0 0 1 5.526 5.787 18.806 18.806 0 0 1 7.534-1.623c4.95 0 9.696 1.988 13.192 5.534a19.002 19.002 0 0 1 5.463 13.356c0 5.014-1.966 9.811-5.463 13.357a18.548 18.548 0 0 1-13.192 5.534 13.986 13.986 0 0 1-3.616-.422 13.443 13.443 0 0 1-7.723 6.369 13.885 13.885 0 0 1-10.005-.73 14.93 14.93 0 0 1-5.877 6.987 15.183 15.183 0 0 1-8.769 2.5 14.738 14.738 0 0 1-8.573-2.858 15.435 15.435 0 0 1-5.477-7.296 13.74 13.74 0 0 1-2.984.309 14.427 14.427 0 0 1-7.161-2.051 14.666 14.666 0 0 1-5.224-5.365 14.911 14.911 0 0 1-1.917-7.275c0-2.549.646-5.063 1.889-7.282a14.326 14.326 0 0 1 5.266-5.316 16.9 16.9 0 0 1-.513-11.896 16.951 16.951 0 0 1 7.387-9.234 16.282 16.282 0 0 1 11.641-1.98 16.213 16.213 0 0 1 10.117 6.158v-.014Z" fill="#0D9DDA"/><path d="M266.304 19.914h23.534v32.365h28.948V19.914h23.542v87.097h-23.542V71.816h-28.948v35.195h-23.534V19.914ZM372.639 19.914h62.129V39.45h-38.595v14.122h27.537v18.363h-27.537v16.123h40.603v18.953h-64.137V19.914ZM462.628 19.914h34.01c22.355 0 36.011 7.415 36.011 28.363 0 13.651-5.771 21.544-17.18 25.42l18.472 33.314h-24.946l-16.829-30.245h-6.474v30.245h-23.064V19.914Zm33.182 38.96c9.647 0 13.887-2.711 13.887-10 0-7.29-4.233-9.888-13.887-9.888h-10.118V58.88h10.118v-.007ZM557.202 63.46c0-31.89 21.766-45.197 42.836-45.197s42.716 13.308 42.716 45.196c0 31.888-21.772 45.196-42.716 45.196-20.944 0-42.836-13.3-42.836-45.196Zm62.011 0c0-16.005-6.944-25.773-19.182-25.773S580.73 47.455 580.73 63.46c0 16.004 6.944 26.369 19.301 26.369s19.182-10.358 19.182-26.369ZM668.95 19.914h23.535v31.544l24.012-31.544h27.298L714.489 54.28l31.89 52.731h-26.596L699.19 72.167l-6.712 7.766v27.072h-23.535V19.907l.007.007ZM768.116 72.054v-52.14h23.535v52.028c0 12.001 3.883 17.415 13.298 17.415s13.179-5.414 13.179-17.415V19.914h23.064v52.14c0 23.076-11.058 36.25-36.482 36.25-25.423 0-36.601-13.174-36.601-36.25h.007Z" fill="#fff"/></svg>
