<svg xmlns="http://www.w3.org/2000/svg" fill="none" viewBox="0 0 88 52"><path fill="#fff" d="m37.387 25.59 4.916-2.932-.267-.465c-2.19-3.823-5.288-5.792-9.263-5.792-2.9 0-5.36.873-7.34 2.642-1.983 1.756-2.988 3.963-2.988 6.585 0 1.947.598 3.675 1.792 5.161 1.187 1.477 2.943 2.691 5.225 3.662l3.142 1.316c.792.344 1.464.704 2.02 1.077l.008.005c.553.358.985.739 1.308 1.139l.005.007.007.007c.332.384.569.807.714 1.271l.003.009.003.008c.16.458.244.976.244 1.56 0 1.457-.46 2.625-1.364 3.547-.904.922-2.035 1.388-3.433 1.388-1.791 0-3.094-.643-3.991-1.897l-.006-.008-.005-.006c-.466-.611-.85-1.812-1.073-3.724l-.07-.596-6.052 1.342.074.501c.463 3.15 1.639 5.645 3.564 7.433l.003.002c1.955 1.788 4.425 2.668 7.366 2.668 3.113 0 5.748-1.04 7.866-3.127 2.109-2.078 3.157-4.713 3.157-7.862 0-2.355-.642-4.376-1.952-6.028-1.301-1.656-3.327-3.018-6.02-4.114l-3.247-1.337c-2.297-.95-3.208-2.102-3.208-3.361 0-.997.377-1.809 1.158-2.473l.003-.003c.788-.68 1.79-1.036 3.045-1.036 1.04 0 1.838.212 2.43.594l.009.006.01.005c.548.322 1.2 1.067 1.934 2.35l.273.477Z"/><path fill="#fff" fill-rule="evenodd" d="M15.89 38.791V17.038H9.874v21.753c0 2.782-.3 4.615-.823 5.605l-.005.01c-.236.469-.556.804-.96 1.026-.407.226-.931.353-1.596.353-.9 0-1.913-.35-3.053-1.118l-.481-.325L0 49.536l.455.273C2.323 50.935 4.338 51.5 6.49 51.5c2.859 0 5.193-1.03 6.948-3.097.904-1.047 1.537-2.32 1.906-3.803.371-1.32.546-3.269.546-5.809Z" clip-rule="evenodd"/><path fill="#fff" d="M80.542 31.185H78.31c-.065 0-.097-.033-.097-.098l.038-13.752c0-.052.026-.078.078-.078h6.37c.065 0 .098.026.098.078v2.258c0 .052-.026.078-.078.078h-4.079v3.108h4.079c.052 0 .078.033.078.098l.019 2.268c0 .052-.032.078-.097.078h-4.079v5.864c0 .065-.032.098-.097.098ZM71.152 31.185h-1.99c-.104 0-.156-.046-.156-.137l-.02-13.634c0-.105.052-.157.156-.157h1.797l3.36 7.888-.098-7.732c0-.104.059-.156.175-.156h1.971c.078 0 .117.052.117.156l.02 13.655c0 .078-.033.117-.098.117h-1.748l-3.447-7.37.146 7.213c0 .105-.062.157-.185.157ZM63.578 31.38a3.666 3.666 0 0 1-1.952-.547 4.255 4.255 0 0 1-1.427-1.456 3.934 3.934 0 0 1-.535-2.014l.02-6.343c0-.743.178-1.41.534-2.004.35-.599.822-1.078 1.418-1.436a3.65 3.65 0 0 1 1.942-.548c.725 0 1.376.18 1.952.538.582.358 1.048.84 1.398 1.446.356.6.534 1.268.534 2.004l.02 6.343c0 .73-.175 1.398-.525 2.004a4.145 4.145 0 0 1-1.418 1.466 3.651 3.651 0 0 1-1.961.547Zm0-2.414c.401 0 .75-.163 1.049-.489.297-.332.446-.703.446-1.114l-.02-6.343c0-.443-.138-.818-.417-1.124a1.368 1.368 0 0 0-1.058-.46c-.408 0-.758.15-1.049.45-.291.3-.437.678-.437 1.134v6.343c0 .437.146.815.437 1.134.291.313.641.47 1.049.47ZM54.547 31.38a3.7 3.7 0 0 1-1.971-.547 4.065 4.065 0 0 1-1.408-1.466 4.182 4.182 0 0 1-.515-2.062l.02-6.246c0-.743.168-1.414.504-2.013.337-.606.8-1.092 1.389-1.457a3.669 3.669 0 0 1 1.981-.557c.738 0 1.395.18 1.971.538a3.936 3.936 0 0 1 1.389 1.456c.35.606.524 1.284.524 2.033v.919c0 .052-.026.078-.078.078H56.12c-.052 0-.078-.026-.078-.078v-.919a1.66 1.66 0 0 0-.427-1.143 1.372 1.372 0 0 0-1.068-.48c-.473 0-.835.164-1.088.49a1.799 1.799 0 0 0-.378 1.133v6.246c0 .488.142.89.427 1.202.285.306.631.46 1.039.46.427 0 .783-.17 1.068-.509.285-.345.427-.73.427-1.153v-.929c0-.052.026-.078.078-.078h2.253c.052 0 .078.026.078.078v.929c0 .749-.175 1.433-.525 2.052a4.26 4.26 0 0 1-1.408 1.476 3.636 3.636 0 0 1-1.971.547ZM87.922 49.012h-6.428c-.052 0-.078-.032-.078-.097l.02-13.752c0-.052.025-.078.077-.078h6.39c.052 0 .078.032.078.097v2.239c0 .052-.026.078-.078.078h-4.079v3.127h4.079c.052 0 .078.027.078.079L88 42.972c0 .052-.026.078-.078.078h-4.098v3.5h4.098c.052 0 .078.032.078.097v2.287c0 .052-.026.078-.078.078ZM80.018 49.012h-6.429c-.051 0-.077-.032-.077-.097l.02-13.733c0-.065.032-.097.096-.097h2.214c.065 0 .097.032.097.097L75.92 46.55h4.098c.065 0 .097.033.097.098v2.268c0 .065-.032.097-.097.097ZM71.686 49.012h-2.253c-.064 0-.097-.032-.097-.097l.02-13.752c0-.052.026-.078.077-.078h2.234c.052 0 .077.026.077.078l.02 13.752c0 .065-.026.097-.078.097ZM62.228 49.012h-2.253c-.052 0-.078-.032-.078-.097l.02-13.752c0-.052.032-.078.097-.078h2.214c.065 0 .097.026.097.078l-.02 5.444h2.982v-5.444c0-.052.026-.078.078-.078h2.214c.064 0 .097.026.097.078l.039 13.752c0 .065-.033.097-.097.097h-2.234c-.065 0-.097-.032-.097-.097V43.03h-2.981v5.884c0 .065-.026.097-.078.097ZM54.547 49.208a3.701 3.701 0 0 1-1.971-.547 4.065 4.065 0 0 1-1.408-1.467 4.182 4.182 0 0 1-.515-2.062l.02-6.245c0-.743.168-1.414.504-2.014.337-.606.8-1.091 1.389-1.456a3.669 3.669 0 0 1 1.981-.557c.738 0 1.395.179 1.971.537a3.936 3.936 0 0 1 1.389 1.457c.35.606.524 1.283.524 2.033v.918c0 .053-.026.079-.078.079H56.12c-.052 0-.078-.026-.078-.079v-.918a1.66 1.66 0 0 0-.427-1.144 1.372 1.372 0 0 0-1.068-.479c-.473 0-.835.163-1.088.489a1.799 1.799 0 0 0-.378 1.134v6.245c0 .489.142.89.427 1.202.285.307.631.46 1.039.46.427 0 .783-.17 1.068-.508.285-.346.427-.73.427-1.154v-.928c0-.053.026-.078.078-.078h2.253c.052 0 .078.026.078.078v.928c0 .75-.175 1.434-.525 2.053a4.26 4.26 0 0 1-1.408 1.476 3.637 3.637 0 0 1-1.971.547Z"/><path fill="url(#a)" d="M36.724 11.918h-1.81c-.041 0-.062-.027-.062-.08V9.947h-3.47c-.042 0-.063-.026-.063-.078V8.093L34.813.744c.026-.042.06-.063.102-.063h1.81c.03 0 .046.021.046.063l.016 7.278h1.128c.052 0 .078.03.078.087v1.759c0 .052-.02.078-.062.078h-1.144v1.893c0 .052-.02.079-.063.079Zm-3.51-3.896h1.638V4.506l-1.637 3.516Z"/><path fill="url(#b)" d="M30.441 11.918h-5.985c-.052 0-.078-.027-.078-.08V10.01c0-.02.01-.042.031-.063l3.964-5.472c.073-.1.133-.226.18-.378.053-.158.079-.295.079-.41 0-.316-.113-.605-.337-.868a1.075 1.075 0 0 0-.854-.394c-.33 0-.608.126-.838.378-.23.253-.345.573-.345.962v.789c0 .053-.026.079-.078.079h-1.802c-.042 0-.063-.026-.063-.079v-.789c0-.604.149-1.153.447-1.648A3.342 3.342 0 0 1 25.913.942 2.85 2.85 0 0 1 27.441.5c.574 0 1.1.147 1.575.442.47.3.846.69 1.128 1.174a3.02 3.02 0 0 1 .43 1.57c0 .352-.062.712-.188 1.08-.12.363-.287.686-.5.97l-3.048 4.21h3.603c.047 0 .07.021.07.063v1.83c0 .052-.023.079-.07.079Z"/><path fill="url(#c)" d="M19.998 12.075c-.678 0-1.282-.147-1.81-.441a3.316 3.316 0 0 1-1.23-1.175 3.13 3.13 0 0 1-.438-1.624l.016-5.118c0-.6.149-1.138.446-1.616.293-.484.7-.87 1.223-1.16C18.726.648 19.325.5 19.998.5c.689 0 1.29.145 1.801.434.512.289.914.678 1.207 1.167.297.483.446 1.022.446 1.616l.016 5.118c0 .583-.146 1.122-.439 1.616a3.294 3.294 0 0 1-1.23 1.183c-.517.294-1.117.441-1.802.441Zm1.528-3.24-.015-5.118c0-.378-.142-.686-.424-.922-.276-.237-.64-.355-1.088-.355-.46 0-.828.118-1.105.355a1.156 1.156 0 0 0-.415.922v5.118c0 .4.138.715.415.946.277.231.645.347 1.105.347.449 0 .814-.116 1.096-.347.288-.231.431-.547.431-.946Z"/><path fill="url(#d)" d="M15.416 11.918H9.43c-.052 0-.078-.027-.078-.08V10.01c0-.02.01-.042.031-.063l3.964-5.472c.074-.1.134-.226.18-.378.053-.158.079-.295.079-.41 0-.316-.112-.605-.337-.868a1.074 1.074 0 0 0-.854-.394c-.329 0-.608.126-.838.378-.23.253-.345.573-.345.962v.789c0 .053-.026.079-.078.079H9.352c-.042 0-.063-.026-.063-.079v-.789c0-.604.15-1.153.447-1.648A3.343 3.343 0 0 1 10.887.942 2.85 2.85 0 0 1 12.415.5c.575 0 1.1.147 1.575.442.47.3.846.69 1.128 1.174a3.02 3.02 0 0 1 .43 1.57c0 .352-.062.712-.187 1.08-.12.363-.288.686-.502.97l-3.047 4.21h3.604c.047 0 .07.021.07.063v1.83c0 .052-.023.079-.07.079Z"/><defs><linearGradient id="a" x1="44.175" x2="44.175" y1="-1.498" y2="12.49" gradientUnits="userSpaceOnUse"><stop stop-color="#2A2401"/><stop offset=".396" stop-color="#9A8025"/><stop offset="1" stop-color="#EDE060"/></linearGradient><linearGradient id="b" x1="44.175" x2="44.175" y1="-1.498" y2="12.49" gradientUnits="userSpaceOnUse"><stop stop-color="#2A2401"/><stop offset=".396" stop-color="#9A8025"/><stop offset="1" stop-color="#EDE060"/></linearGradient><linearGradient id="c" x1="44.175" x2="44.175" y1="-1.498" y2="12.49" gradientUnits="userSpaceOnUse"><stop stop-color="#2A2401"/><stop offset=".396" stop-color="#9A8025"/><stop offset="1" stop-color="#EDE060"/></linearGradient><linearGradient id="d" x1="44.175" x2="44.175" y1="-1.498" y2="12.49" gradientUnits="userSpaceOnUse"><stop stop-color="#2A2401"/><stop offset=".396" stop-color="#9A8025"/><stop offset="1" stop-color="#EDE060"/></linearGradient></defs></svg>