<svg width="72" height="72" viewBox="0 0 72 72" fill="none" xmlns="http://www.w3.org/2000/svg">
<path d="M27 54H45" stroke="white" stroke-width="4" stroke-linecap="round" stroke-linejoin="round"/>
<path d="M30 66H42" stroke="white" stroke-width="4" stroke-linecap="round" stroke-linejoin="round"/>
<path d="M45.27 42C45.81 39.06 47.22 36.78 49.5 34.5C50.9486 33.1665 52.0985 31.5415 52.8741 29.7317C53.6497 27.922 54.0334 25.9686 54 24C54 19.2261 52.1036 14.6477 48.7279 11.2721C45.3523 7.89642 40.7739 6 36 6C31.2261 6 26.6477 7.89642 23.2721 11.2721C19.8964 14.6477 18 19.2261 18 24C18 27 18.69 30.69 22.5 34.5C24.6722 36.4862 26.154 39.1136 26.73 42" stroke="white" stroke-width="4" stroke-linecap="round" stroke-linejoin="round"/>
</svg>
