<svg width="72" height="72" viewBox="0 0 72 72" fill="none" xmlns="http://www.w3.org/2000/svg">
<path d="M54 24C58.9706 24 63 19.9706 63 15C63 10.0294 58.9706 6 54 6C49.0294 6 45 10.0294 45 15C45 19.9706 49.0294 24 54 24Z" stroke="white" stroke-width="4" stroke-linecap="round" stroke-linejoin="round"/>
<path d="M18 45C22.9706 45 27 40.9706 27 36C27 31.0294 22.9706 27 18 27C13.0294 27 9 31.0294 9 36C9 40.9706 13.0294 45 18 45Z" stroke="white" stroke-width="4" stroke-linecap="round" stroke-linejoin="round"/>
<path d="M54 66C58.9706 66 63 61.9706 63 57C63 52.0294 58.9706 48 54 48C49.0294 48 45 52.0294 45 57C45 61.9706 49.0294 66 54 66Z" stroke="white" stroke-width="4" stroke-linecap="round" stroke-linejoin="round"/>
<path d="M25.77 40.53L46.26 52.47" stroke="white" stroke-width="4" stroke-linecap="round" stroke-linejoin="round"/>
<path d="M46.23 19.53L25.77 31.47" stroke="white" stroke-width="4" stroke-linecap="round" stroke-linejoin="round"/>
</svg>
