<svg width="337" height="176" viewBox="0 0 337 176" fill="none" xmlns="http://www.w3.org/2000/svg">
<ellipse cx="168.5" cy="88" rx="168.5" ry="88" fill="url(#paint0_radial_535_2574)" fill-opacity="0.5"/>
<path d="M138.26 55.7999L153.678 46.6102L152.842 45.1519C145.969 33.1704 136.254 27 123.787 27C114.692 27 106.979 29.737 100.768 35.2782C94.5462 40.7845 91.3972 47.7004 91.3972 55.9172C91.3972 62.0194 93.2716 67.4344 97.0168 72.0924C100.739 76.7222 106.245 80.5258 113.403 83.5689L123.259 87.6938C125.741 88.7704 127.849 89.8979 129.596 91.0693L129.62 91.0846C131.352 92.2046 132.707 93.3982 133.72 94.6517L133.738 94.6743L133.757 94.6962C134.8 95.9006 135.542 97.2262 135.999 98.6816L136.007 98.7075L136.016 98.7333C136.518 100.168 136.781 101.793 136.781 103.625C136.781 108.191 135.338 111.85 132.505 114.738C129.67 117.63 126.123 119.088 121.737 119.088C116.119 119.088 112.034 117.075 109.218 113.142L109.202 113.12L109.186 113.099C107.722 111.185 106.522 107.423 105.821 101.43L105.602 99.5601L86.6192 103.767L86.8506 105.338C88.3045 115.208 91.9912 123.029 98.0288 128.631L98.0384 128.639C104.17 134.242 111.916 137 121.141 137C130.905 137 139.168 133.74 145.812 127.199C152.425 120.688 155.715 112.43 155.715 102.56C155.715 95.1796 153.7 88.8469 149.592 83.669C145.51 78.4788 139.157 74.209 130.71 70.7741L130.707 70.7728L120.527 66.5843C113.32 63.6073 110.464 59.999 110.464 56.0503C110.464 52.9269 111.646 50.3827 114.096 48.3031L114.108 48.2931C116.578 46.1581 119.718 45.045 123.655 45.045C126.92 45.045 129.42 45.7107 131.276 46.9055L131.306 46.9245L131.336 46.9422C133.057 47.9517 135.102 50.2867 137.404 54.3056L138.26 55.7999Z" fill="white"/>
<path fill-rule="evenodd" clip-rule="evenodd" d="M70.8357 97.1706V28.9962H51.9678V97.1706C51.9678 105.889 51.0267 111.634 49.3872 114.735L49.3719 114.766C48.6314 116.236 47.6282 117.286 46.3635 117.984C45.0833 118.69 43.4393 119.088 41.3563 119.088C38.5345 119.088 35.354 117.994 31.7807 115.584L30.2712 114.566L21 130.843L22.4259 131.701C28.2862 135.229 34.6064 137 41.3563 137C50.3211 137 57.6412 133.775 63.1478 127.293C65.9825 124.012 67.9654 120.024 69.1247 115.375C70.2885 111.238 70.8357 105.131 70.8357 97.1706Z" fill="white"/>
<path d="M273.61 73.3324H266.605C266.402 73.3324 266.3 73.2303 266.3 73.0261L266.422 29.9278C266.422 29.7644 266.503 29.6827 266.666 29.6827H286.645C286.848 29.6827 286.949 29.7644 286.949 29.9278V37.0036C286.949 37.167 286.868 37.2487 286.706 37.2487H273.914V46.9894H286.706C286.868 46.9894 286.949 47.0915 286.949 47.2958L287.01 54.4022C287.01 54.5656 286.909 54.6473 286.706 54.6473H273.914V73.0261C273.914 73.2303 273.813 73.3324 273.61 73.3324Z" fill="white"/>
<path d="M244.159 73.3324H237.915C237.591 73.3324 237.428 73.1894 237.428 72.9035L237.367 30.1728C237.367 29.8461 237.53 29.6827 237.854 29.6827H243.489L254.027 54.4022L253.722 30.1728C253.722 29.8461 253.905 29.6827 254.27 29.6827H260.453C260.696 29.6827 260.818 29.8461 260.818 30.1728L260.879 72.9648C260.879 73.2099 260.778 73.3324 260.575 73.3324H255.093L244.281 50.2364L244.738 72.8423C244.738 73.169 244.545 73.3324 244.159 73.3324Z" fill="white"/>
<path d="M220.403 73.945C218.19 73.945 216.15 73.3732 214.282 72.2297C212.434 71.0861 210.942 69.5647 209.805 67.6656C208.688 65.746 208.129 63.6427 208.129 61.3555L208.19 41.4758C208.19 39.1478 208.749 37.0547 209.865 35.1964C210.962 33.3177 212.444 31.8167 214.312 30.6936C216.18 29.55 218.21 28.9782 220.403 28.9782C222.677 28.9782 224.718 29.5398 226.525 30.6629C228.352 31.7861 229.814 33.2972 230.911 35.1964C232.027 37.0751 232.586 39.1682 232.586 41.4758L232.647 61.3555C232.647 63.6427 232.098 65.7358 231.002 67.635C229.885 69.5545 228.403 71.0861 226.555 72.2297C224.708 73.3732 222.657 73.945 220.403 73.945ZM220.403 66.3791C221.662 66.3791 222.758 65.8686 223.692 64.8475C224.626 63.806 225.093 62.6421 225.093 61.3555L225.033 41.4758C225.033 40.0872 224.596 38.913 223.723 37.9532C222.85 36.9934 221.743 36.5135 220.403 36.5135C219.124 36.5135 218.028 36.9832 217.114 37.9226C216.2 38.8619 215.743 40.0463 215.743 41.4758V61.3555C215.743 62.7237 216.2 63.9081 217.114 64.9088C218.028 65.889 219.124 66.3791 220.403 66.3791Z" fill="white"/>
<path d="M192.079 73.945C189.825 73.945 187.765 73.3732 185.897 72.2297C184.049 71.0861 182.577 69.5545 181.481 67.635C180.404 65.695 179.866 63.5406 179.866 61.1718L179.927 41.5983C179.927 39.2704 180.455 37.167 181.511 35.2883C182.567 33.3891 184.019 31.8678 185.866 30.7242C187.734 29.5602 189.805 28.9782 192.079 28.9782C194.394 28.9782 196.455 29.5398 198.262 30.6629C200.089 31.7861 201.541 33.3075 202.617 35.227C203.713 37.1262 204.262 39.2499 204.262 41.5983V44.4777C204.262 44.641 204.18 44.7227 204.018 44.7227H197.013C196.851 44.7227 196.769 44.641 196.769 44.4777V41.5983C196.769 40.2097 196.323 39.0151 195.429 38.0145C194.536 37.0138 193.419 36.5135 192.079 36.5135C190.597 36.5135 189.46 37.0241 188.668 38.0451C187.876 39.0661 187.48 40.2506 187.48 41.5983V61.1718C187.48 62.7033 187.927 63.9592 188.82 64.9394C189.714 65.8992 190.8 66.3791 192.079 66.3791C193.419 66.3791 194.536 65.8481 195.429 64.7862C196.323 63.7039 196.769 62.4991 196.769 61.1718V58.2618C196.769 58.0984 196.851 58.0167 197.013 58.0167H204.079C204.241 58.0167 204.322 58.0984 204.322 58.2618V61.1718C204.322 63.5202 203.774 65.6643 202.678 67.6043C201.561 69.5239 200.089 71.0657 198.262 72.2297C196.434 73.3732 194.374 73.945 192.079 73.945Z" fill="white"/>
<path d="M296.756 129.204H276.594C276.432 129.204 276.351 129.102 276.351 128.898L276.412 85.7993C276.412 85.6359 276.493 85.5542 276.655 85.5542H296.695C296.858 85.5542 296.939 85.6563 296.939 85.8605V92.8751C296.939 93.0385 296.858 93.1201 296.695 93.1201H283.904V102.922H296.695C296.858 102.922 296.939 103.004 296.939 103.167L297 110.274C297 110.437 296.919 110.519 296.756 110.519H283.904V121.485H296.756C296.919 121.485 297 121.587 297 121.791V128.959C297 129.122 296.919 129.204 296.756 129.204Z" fill="white"/>
<path d="M271.965 129.204H251.803C251.641 129.204 251.56 129.102 251.56 128.898L251.621 85.8605C251.621 85.6563 251.722 85.5542 251.925 85.5542H258.869C259.072 85.5542 259.174 85.6563 259.174 85.8605L259.113 121.485H271.965C272.168 121.485 272.27 121.587 272.27 121.791V128.898C272.27 129.102 272.168 129.204 271.965 129.204Z" fill="white"/>
<path d="M245.834 129.204H238.768C238.565 129.204 238.464 129.102 238.464 128.898L238.524 85.7993C238.524 85.6359 238.606 85.5542 238.768 85.5542H245.773C245.935 85.5542 246.017 85.6359 246.017 85.7993L246.078 128.898C246.078 129.102 245.996 129.204 245.834 129.204Z" fill="white"/>
<path d="M216.17 129.204H209.104C208.942 129.204 208.86 129.102 208.86 128.898L208.921 85.7993C208.921 85.6359 209.023 85.5542 209.226 85.5542H216.17C216.373 85.5542 216.474 85.6359 216.474 85.7993L216.414 102.861H225.763V85.7993C225.763 85.6359 225.845 85.5542 226.007 85.5542H232.951C233.154 85.5542 233.256 85.6359 233.256 85.7993L233.377 128.898C233.377 129.102 233.276 129.204 233.073 129.204H226.068C225.865 129.204 225.763 129.102 225.763 128.898V110.457H216.414V128.898C216.414 129.102 216.332 129.204 216.17 129.204Z" fill="white"/>
<path d="M192.079 129.817C189.825 129.817 187.765 129.245 185.897 128.101C184.049 126.958 182.577 125.426 181.481 123.506C180.404 121.566 179.866 119.412 179.866 117.043L179.927 97.4698C179.927 95.1419 180.455 93.0385 181.511 91.1598C182.567 89.2606 184.019 87.7393 185.866 86.5957C187.734 85.4317 189.805 84.8497 192.079 84.8497C194.394 84.8497 196.455 85.4113 198.262 86.5345C200.089 87.6576 201.541 89.179 202.617 91.0985C203.713 92.9977 204.262 95.1214 204.262 97.4698V100.349C204.262 100.513 204.18 100.594 204.018 100.594H197.013C196.851 100.594 196.769 100.513 196.769 100.349V97.4698C196.769 96.0812 196.323 94.8866 195.429 93.886C194.536 92.8854 193.419 92.385 192.079 92.385C190.597 92.385 189.46 92.8956 188.668 93.9166C187.876 94.9377 187.48 96.1221 187.48 97.4698V117.043C187.48 118.575 187.927 119.831 188.82 120.811C189.714 121.771 190.8 122.251 192.079 122.251C193.419 122.251 194.536 121.72 195.429 120.658C196.323 119.575 196.769 118.371 196.769 117.043V114.133C196.769 113.97 196.851 113.888 197.013 113.888H204.079C204.241 113.888 204.322 113.97 204.322 114.133V117.043C204.322 119.392 203.774 121.536 202.678 123.476C201.561 125.395 200.089 126.937 198.262 128.101C196.434 129.245 194.374 129.817 192.079 129.817Z" fill="white"/>
<path d="M292.495 146.995C293.051 146.995 293.503 146.934 293.85 146.812C294.508 146.577 294.837 146.141 294.837 145.503C294.837 145.13 294.674 144.842 294.347 144.638C294.021 144.439 293.508 144.263 292.809 144.11L291.615 143.842C290.442 143.577 289.63 143.289 289.181 142.977C288.421 142.457 288.041 141.643 288.041 140.536C288.041 139.526 288.408 138.687 289.143 138.018C289.878 137.35 290.957 137.016 292.38 137.016C293.569 137.016 294.582 137.332 295.419 137.965C296.26 138.592 296.702 139.505 296.743 140.704H294.477C294.437 140.026 294.141 139.544 293.59 139.258C293.222 139.069 292.766 138.975 292.22 138.975C291.613 138.975 291.128 139.097 290.766 139.342C290.403 139.587 290.222 139.929 290.222 140.368C290.222 140.771 290.401 141.072 290.758 141.271C290.988 141.403 291.477 141.559 292.227 141.738L294.171 142.204C295.023 142.408 295.666 142.681 296.1 143.023C296.773 143.554 297.11 144.322 297.11 145.327C297.11 146.357 296.715 147.215 295.924 147.898C295.138 148.577 294.026 148.916 292.587 148.916C291.118 148.916 289.962 148.582 289.12 147.914C288.278 147.24 287.857 146.317 287.857 145.143H290.107C290.179 145.658 290.319 146.044 290.528 146.299C290.911 146.763 291.567 146.995 292.495 146.995Z" fill="white"/>
<path d="M281.192 148.939C279.58 148.939 278.348 148.5 277.496 147.622C276.353 146.546 275.781 144.995 275.781 142.969C275.781 140.903 276.353 139.352 277.496 138.316C278.348 137.439 279.58 137 281.192 137C282.804 137 284.036 137.439 284.888 138.316C286.026 139.352 286.595 140.903 286.595 142.969C286.595 144.995 286.026 146.546 284.888 147.622C284.036 148.5 282.804 148.939 281.192 148.939ZM283.419 145.908C283.965 145.219 284.238 144.24 284.238 142.969C284.238 141.704 283.962 140.727 283.411 140.038C282.865 139.344 282.126 138.997 281.192 138.997C280.258 138.997 279.513 139.342 278.957 140.031C278.401 140.719 278.123 141.699 278.123 142.969C278.123 144.24 278.401 145.219 278.957 145.908C279.513 146.597 280.258 146.941 281.192 146.941C282.126 146.941 282.868 146.597 283.419 145.908Z" fill="white"/>
<path d="M270.692 146.436L272.414 140.283H274.733L271.87 148.487C271.319 150.069 270.883 151.049 270.562 151.426C270.24 151.809 269.597 152 268.633 152C268.439 152 268.284 151.997 268.166 151.992C268.049 151.992 267.873 151.985 267.638 151.969V150.225L267.914 150.24C268.128 150.25 268.332 150.242 268.526 150.217C268.72 150.191 268.883 150.133 269.016 150.041C269.143 149.954 269.261 149.773 269.368 149.497C269.48 149.222 269.526 149.054 269.506 148.992L266.444 140.283H268.87L270.692 146.436Z" fill="white"/>
<path d="M265.901 147.071V148.702L264.867 148.74C263.837 148.776 263.133 148.597 262.755 148.204C262.51 147.954 262.388 147.569 262.388 147.049V141.913H261.225V140.36H262.388V138.033H264.546V140.36H265.901V141.913H264.546V146.321C264.546 146.663 264.589 146.878 264.676 146.964C264.763 147.046 265.028 147.087 265.472 147.087C265.538 147.087 265.607 147.087 265.679 147.087C265.755 147.082 265.829 147.077 265.901 147.071Z" fill="white"/>
<path d="M259.962 140.283V148.625H257.75V140.283H259.962ZM259.962 137.275V139.288H257.75V137.275H259.962Z" fill="white"/>
<path d="M252.064 141.898C251.324 141.898 250.817 142.212 250.541 142.839C250.398 143.171 250.327 143.594 250.327 144.109V148.625H248.153V140.298H250.258V141.515C250.539 141.087 250.804 140.778 251.054 140.589C251.503 140.252 252.072 140.084 252.76 140.084C253.623 140.084 254.327 140.311 254.873 140.765C255.424 141.214 255.699 141.962 255.699 143.007V148.625H253.465V143.551C253.465 143.112 253.406 142.775 253.289 142.541C253.074 142.112 252.666 141.898 252.064 141.898Z" fill="white"/>
<path d="M243.906 147.446C243.885 147.472 243.834 147.549 243.753 147.676C243.671 147.804 243.574 147.916 243.462 148.013C243.12 148.319 242.788 148.528 242.467 148.64C242.151 148.753 241.778 148.809 241.35 148.809C240.115 148.809 239.283 148.365 238.855 147.477C238.615 146.987 238.495 146.265 238.495 145.311V140.283H240.73V145.311C240.73 145.786 240.786 146.143 240.898 146.383C241.097 146.806 241.487 147.018 242.069 147.018C242.814 147.018 243.324 146.717 243.6 146.115C243.743 145.788 243.814 145.357 243.814 144.821V140.283H246.026V148.625H243.906V147.446Z" fill="white"/>
<path d="M229.296 142.579C229.112 142.176 228.753 141.975 228.217 141.975C227.595 141.975 227.176 142.176 226.962 142.579C226.845 142.809 226.786 143.151 226.786 143.605V148.625H224.574V140.299H226.694V141.515C226.965 141.082 227.22 140.773 227.459 140.589C227.883 140.263 228.431 140.1 229.105 140.1C229.743 140.1 230.258 140.24 230.651 140.521C230.967 140.781 231.207 141.115 231.37 141.523C231.656 141.033 232.01 140.674 232.434 140.444C232.883 140.214 233.383 140.1 233.934 140.1C234.301 140.1 234.664 140.171 235.021 140.314C235.378 140.457 235.702 140.707 235.993 141.064C236.227 141.355 236.385 141.712 236.467 142.135C236.518 142.416 236.544 142.827 236.544 143.367L236.528 148.625H234.294V143.314C234.294 142.998 234.243 142.737 234.141 142.533C233.947 142.146 233.59 141.952 233.069 141.952C232.467 141.952 232.051 142.202 231.822 142.702C231.704 142.967 231.646 143.286 231.646 143.658V148.625H229.449V143.658C229.449 143.163 229.398 142.804 229.296 142.579Z" fill="white"/>
<path d="M215.353 142.579C215.169 142.176 214.809 141.975 214.274 141.975C213.651 141.975 213.233 142.176 213.019 142.579C212.901 142.809 212.843 143.151 212.843 143.605V148.625H210.631V140.299H212.751V141.515C213.021 141.082 213.276 140.773 213.516 140.589C213.94 140.263 214.488 140.1 215.161 140.1C215.799 140.1 216.315 140.24 216.707 140.521C217.024 140.781 217.264 141.115 217.427 141.523C217.712 141.033 218.067 140.674 218.491 140.444C218.94 140.214 219.44 140.1 219.991 140.1C220.358 140.1 220.72 140.171 221.077 140.314C221.434 140.457 221.758 140.707 222.049 141.064C222.284 141.355 222.442 141.712 222.524 142.135C222.575 142.416 222.6 142.827 222.6 143.367L222.585 148.625H220.35V143.314C220.35 142.998 220.299 142.737 220.197 142.533C220.003 142.146 219.646 141.952 219.126 141.952C218.524 141.952 218.108 142.202 217.878 142.702C217.761 142.967 217.702 143.286 217.702 143.658V148.625H215.506V143.658C215.506 143.163 215.455 142.804 215.353 142.579Z" fill="white"/>
<path d="M208.044 141.34C208.748 142.222 209.1 143.266 209.1 144.47C209.1 145.694 208.748 146.743 208.044 147.615C207.34 148.482 206.271 148.916 204.837 148.916C203.403 148.916 202.334 148.482 201.63 147.615C200.926 146.743 200.574 145.694 200.574 144.47C200.574 143.266 200.926 142.222 201.63 141.34C202.334 140.457 203.403 140.016 204.837 140.016C206.271 140.016 207.34 140.457 208.044 141.34ZM204.829 141.86C204.192 141.86 203.699 142.087 203.352 142.541C203.01 142.99 202.84 143.633 202.84 144.47C202.84 145.306 203.01 145.952 203.352 146.406C203.699 146.86 204.192 147.087 204.829 147.087C205.467 147.087 205.957 146.86 206.299 146.406C206.641 145.952 206.811 145.306 206.811 144.47C206.811 143.633 206.641 142.99 206.299 142.541C205.957 142.087 205.467 141.86 204.829 141.86Z" fill="white"/>
<path d="M197.896 147.783C197.054 148.554 195.977 148.939 194.666 148.939C193.044 148.939 191.768 148.419 190.84 147.378C189.911 146.332 189.447 144.898 189.447 143.077C189.447 141.107 189.975 139.59 191.031 138.523C191.949 137.595 193.118 137.13 194.536 137.13C196.434 137.13 197.822 137.753 198.699 138.998C199.184 139.697 199.444 140.398 199.48 141.102H197.123C196.97 140.561 196.773 140.153 196.534 139.878C196.105 139.388 195.47 139.143 194.628 139.143C193.771 139.143 193.095 139.49 192.6 140.184C192.105 140.873 191.857 141.85 191.857 143.115C191.857 144.38 192.118 145.329 192.638 145.962C193.164 146.59 193.829 146.903 194.636 146.903C195.462 146.903 196.092 146.633 196.526 146.092C196.766 145.801 196.965 145.365 197.123 144.783H199.457C199.253 146.013 198.732 147.013 197.896 147.783Z" fill="white"/>
<path d="M186.545 143.68H187.478C187.359 144.002 187.095 144.736 186.686 145.883C186.379 146.745 186.123 147.448 185.917 147.992C185.429 149.273 185.086 150.055 184.886 150.336C184.686 150.617 184.342 150.758 183.854 150.758C183.736 150.758 183.643 150.753 183.578 150.744C183.515 150.734 183.437 150.717 183.343 150.692V149.923C183.49 149.964 183.596 149.989 183.662 149.998C183.728 150.008 183.786 150.013 183.836 150.013C183.992 150.013 184.106 149.986 184.178 149.933C184.253 149.883 184.315 149.82 184.365 149.745C184.381 149.72 184.437 149.592 184.534 149.361C184.631 149.13 184.701 148.958 184.745 148.845L182.889 143.68H183.845L185.19 147.767L186.545 143.68Z" fill="white"/>
<path d="M178 141.791H178.82V144.289C179.005 144.048 179.225 143.866 179.481 143.741C179.738 143.612 180.016 143.548 180.316 143.548C180.941 143.548 181.447 143.764 181.834 144.195C182.225 144.623 182.42 145.256 182.42 146.094C182.42 146.887 182.228 147.547 181.844 148.072C181.459 148.597 180.927 148.859 180.245 148.859C179.864 148.859 179.542 148.767 179.28 148.583C179.123 148.473 178.956 148.298 178.778 148.058V148.7H178V141.791ZM180.194 148.114C180.65 148.114 180.991 147.933 181.216 147.57C181.444 147.208 181.558 146.73 181.558 146.136C181.558 145.608 181.444 145.17 181.216 144.823C180.991 144.476 180.658 144.303 180.217 144.303C179.833 144.303 179.495 144.445 179.205 144.73C178.917 145.014 178.773 145.483 178.773 146.136C178.773 146.608 178.833 146.991 178.952 147.284C179.173 147.837 179.588 148.114 180.194 148.114Z" fill="white"/>
<defs>
<radialGradient id="paint0_radial_535_2574" cx="0" cy="0" r="1" gradientUnits="userSpaceOnUse" gradientTransform="translate(168.5 88) rotate(93.2679) scale(76.5275 146.802)">
<stop stop-color="#5C5C5C"/>
<stop offset="1" stop-color="#3F3F3B" stop-opacity="0"/>
</radialGradient>
</defs>
</svg>
