<svg width="337" height="182" viewBox="0 0 337 182" fill="none" xmlns="http://www.w3.org/2000/svg">
<ellipse cx="168.5" cy="94" rx="168.5" ry="88" fill="url(#paint0_radial_2687_3092)" fill-opacity="0.5"/>
<path d="M151.774 50.387L138.944 57.9897C136.545 53.8263 134.26 51.111 132.088 49.8439C129.825 48.3958 126.906 47.6717 123.331 47.6717C118.942 47.6717 115.299 48.9162 112.402 51.4052C109.506 53.8489 108.058 56.9262 108.058 60.6371C108.058 65.7508 111.859 69.869 119.462 72.9915L129.916 77.268C138.424 80.7074 144.646 84.916 148.583 89.894C152.52 94.8267 154.489 100.891 154.489 108.086C154.489 117.725 151.276 125.69 144.85 131.981C138.378 138.316 130.346 141.484 120.752 141.484C111.656 141.484 104.143 138.791 98.2151 133.406C92.3772 128.021 88.7343 120.441 87.2861 110.666L103.306 107.136C104.03 113.29 105.297 117.544 107.108 119.898C110.366 124.423 115.118 126.686 121.363 126.686C126.295 126.686 130.391 125.034 133.649 121.73C136.908 118.427 138.537 114.241 138.537 109.172C138.537 107.136 138.243 105.28 137.654 103.606C137.111 101.886 136.229 100.325 135.007 98.9222C133.83 97.4741 132.292 96.1391 130.391 94.9172C128.49 93.6501 126.227 92.4509 123.603 91.3195L113.488 87.1109C99.1428 81.0468 91.97 72.1769 91.97 60.5013C91.97 52.6271 94.9794 46.0426 100.998 40.7478C107.017 35.4078 114.507 32.7378 123.467 32.7378C135.55 32.7378 144.985 38.6209 151.774 50.387Z" fill="black"/>
<path fill-rule="evenodd" clip-rule="evenodd" d="M154.138 51.0063L138.317 60.3815L137.439 58.8571C135.077 54.757 132.978 52.3748 131.213 51.3449L131.182 51.3269L131.152 51.3076C129.247 50.0886 126.682 49.4095 123.332 49.4095C119.292 49.4095 116.07 50.5451 113.535 52.7231L113.523 52.7334C111.009 54.855 109.796 57.4506 109.796 60.6371C109.796 64.6655 112.728 68.3466 120.122 71.3838C120.122 71.3837 120.122 71.3839 120.122 71.3838L130.567 75.6569C130.569 75.6574 130.57 75.6578 130.571 75.6582C139.238 79.1625 145.756 83.5186 149.945 88.8135C154.159 94.096 156.227 100.557 156.227 108.086C156.227 118.155 152.852 126.58 146.066 133.222C139.249 139.896 130.771 143.222 120.752 143.222C111.287 143.222 103.339 140.408 97.047 134.692L97.0372 134.683C90.8421 128.968 87.0593 120.99 85.5676 110.92L85.3301 109.317L104.808 105.026L105.032 106.933C105.752 113.047 106.983 116.886 108.485 118.838L108.502 118.86L108.518 118.882C111.407 122.895 115.599 124.948 121.363 124.948C125.863 124.948 129.503 123.46 132.412 120.51C135.319 117.563 136.799 113.83 136.799 109.172C136.799 107.304 136.53 105.646 136.015 104.182L136.006 104.156L135.998 104.129C135.529 102.645 134.767 101.292 133.697 100.064L133.677 100.041L133.659 100.018C132.62 98.7392 131.229 97.5216 129.452 96.379L129.427 96.3633C127.635 95.1683 125.472 94.018 122.925 92.9196L112.812 88.7115C105.468 85.6069 99.8184 81.7265 95.9988 77.0031C92.1559 72.2511 90.2326 66.7267 90.2326 60.5013C90.2326 52.1185 93.4638 45.0629 99.8481 39.4454C106.221 33.7923 114.135 31 123.467 31C136.259 31 146.227 37.295 153.279 49.5186L154.138 51.0063ZM123.603 91.3195C126.228 92.4508 128.491 93.6501 130.391 94.9172C132.292 96.1391 133.831 97.4741 135.007 98.9222C136.229 100.325 137.112 101.886 137.655 103.606C138.243 105.28 138.537 107.136 138.537 109.172C138.537 114.241 136.908 118.427 133.65 121.73C130.391 125.034 126.296 126.686 121.363 126.686C115.118 126.686 110.366 124.423 107.108 119.898C105.473 117.772 104.28 114.094 103.532 108.866C103.452 108.307 103.377 107.73 103.307 107.136L87.2866 110.666C88.7347 120.441 92.3777 128.021 98.2155 133.406C104.144 138.791 111.656 141.484 120.752 141.484C130.346 141.484 138.379 138.316 144.85 131.98C151.276 125.69 154.489 117.725 154.489 108.086C154.489 100.891 152.521 94.8267 148.584 89.894C144.646 84.916 138.424 80.7073 129.916 77.268L119.462 72.9915C111.86 69.8689 108.058 65.7508 108.058 60.6371C108.058 56.9262 109.506 53.8489 112.403 51.4052C115.299 48.9162 118.942 47.6717 123.332 47.6717C126.907 47.6717 129.826 48.3958 132.088 49.8439C134.06 50.9942 136.125 53.3377 138.284 56.8746C138.503 57.234 138.723 57.6057 138.944 57.9897L151.774 50.387C151.57 50.0332 151.363 49.6848 151.155 49.3418C151.064 49.1923 150.972 49.0439 150.88 48.8965C144.167 38.124 135.029 32.7378 123.467 32.7378C114.507 32.7378 107.017 35.4078 100.999 40.7478C94.9798 46.0425 91.9704 52.627 91.9704 60.5013C91.9704 72.1769 99.1432 81.0468 113.489 87.1108L123.603 91.3195Z" fill="black"/>
<path d="M67.3973 34.7742V102.588C67.3973 110.688 66.8317 116.73 65.7003 120.712C64.5689 125.238 62.6456 129.062 59.9304 132.184C54.6356 138.384 47.6212 141.484 38.8871 141.484C32.28 141.484 26.1028 139.764 20.3555 136.325L28.094 122.816C31.9406 125.396 35.5383 126.686 38.8871 126.686C43.5936 126.686 46.8519 124.898 48.662 121.323C50.5627 117.748 51.5131 111.503 51.5131 102.588V34.7742H67.3973Z" fill="black"/>
<path fill-rule="evenodd" clip-rule="evenodd" d="M69.135 33.0364V102.588C69.135 110.709 68.5736 116.939 67.3794 121.16C66.1899 125.903 64.1553 129.972 61.2467 133.318C55.5965 139.931 48.0856 143.222 38.887 143.222C31.9611 143.222 25.4761 141.414 19.463 137.816L18 136.94L27.5129 120.335L29.0617 121.373C32.7282 123.832 35.9917 124.948 38.887 124.948C41.0243 124.948 42.7112 124.542 44.0248 123.821C45.3224 123.11 46.3518 122.039 47.1116 120.538L47.1273 120.507C48.8095 117.343 49.7752 111.483 49.7752 102.588V33.0364H69.135ZM59.9303 132.184C62.6455 129.062 64.5689 125.238 65.7002 120.712C66.8316 116.73 67.3973 110.688 67.3973 102.588V34.7741H51.513V102.588C51.513 111.503 50.5626 117.748 48.662 121.323C46.8518 124.898 43.5935 126.686 38.887 126.686C35.9683 126.686 32.8606 125.706 29.5638 123.747C29.0779 123.458 28.5879 123.148 28.0939 122.816L20.3554 136.325C20.7849 136.582 21.2167 136.829 21.651 137.067C21.7226 137.106 21.7943 137.145 21.866 137.184C27.1813 140.051 32.855 141.484 38.887 141.484C47.6211 141.484 54.6355 138.384 59.9303 132.184Z" fill="black"/>
<path d="M193.539 78.625C191.227 78.625 189.112 78.0417 187.195 76.875C185.299 75.7083 183.789 74.1458 182.664 72.1875C181.56 70.2083 181.008 68.0104 181.008 65.5938L181.07 45.625C181.07 43.25 181.612 41.1042 182.695 39.1875C183.779 37.25 185.268 35.6979 187.164 34.5312C189.081 33.3438 191.206 32.75 193.539 32.75C195.914 32.75 198.029 33.3229 199.883 34.4688C201.758 35.6146 203.247 37.1667 204.352 39.125C205.477 41.0625 206.039 43.2292 206.039 45.625V48.5625C206.039 48.7292 205.956 48.8125 205.789 48.8125H198.602C198.435 48.8125 198.352 48.7292 198.352 48.5625V45.625C198.352 44.2083 197.893 42.9896 196.977 41.9688C196.06 40.9479 194.914 40.4375 193.539 40.4375C192.018 40.4375 190.852 40.9583 190.039 42C189.227 43.0417 188.82 44.25 188.82 45.625V65.5938C188.82 67.1562 189.279 68.4375 190.195 69.4375C191.112 70.4167 192.227 70.9062 193.539 70.9062C194.914 70.9062 196.06 70.3646 196.977 69.2812C197.893 68.1771 198.352 66.9479 198.352 65.5938V62.625C198.352 62.4583 198.435 62.375 198.602 62.375H205.852C206.018 62.375 206.102 62.4583 206.102 62.625V65.5938C206.102 67.9896 205.539 70.1771 204.414 72.1562C203.268 74.1146 201.758 75.6875 199.883 76.875C198.008 78.0417 195.893 78.625 193.539 78.625ZM222.602 78.625C220.331 78.625 218.237 78.0417 216.32 76.875C214.424 75.7083 212.893 74.1562 211.727 72.2188C210.581 70.2604 210.008 68.1146 210.008 65.7812L210.07 45.5C210.07 43.125 210.643 40.9896 211.789 39.0938C212.914 37.1771 214.435 35.6458 216.352 34.5C218.268 33.3333 220.352 32.75 222.602 32.75C224.935 32.75 227.029 33.3229 228.883 34.4688C230.758 35.6146 232.258 37.1562 233.383 39.0938C234.529 41.0104 235.102 43.1458 235.102 45.5L235.164 65.7812C235.164 68.1146 234.602 70.25 233.477 72.1875C232.331 74.1458 230.81 75.7083 228.914 76.875C227.018 78.0417 224.914 78.625 222.602 78.625ZM222.602 70.9062C223.893 70.9062 225.018 70.3854 225.977 69.3438C226.935 68.2812 227.414 67.0938 227.414 65.7812L227.352 45.5C227.352 44.0833 226.904 42.8854 226.008 41.9062C225.112 40.9271 223.977 40.4375 222.602 40.4375C221.289 40.4375 220.164 40.9167 219.227 41.875C218.289 42.8333 217.82 44.0417 217.82 45.5V65.7812C217.82 67.1771 218.289 68.3854 219.227 69.4062C220.164 70.4062 221.289 70.9062 222.602 70.9062ZM246.977 78H240.57C240.237 78 240.07 77.8542 240.07 77.5625L240.008 33.9688C240.008 33.6354 240.174 33.4688 240.508 33.4688H246.289L257.102 58.6875L256.789 33.9688C256.789 33.6354 256.977 33.4688 257.352 33.4688H263.695C263.945 33.4688 264.07 33.6354 264.07 33.9688L264.133 77.625C264.133 77.875 264.029 78 263.82 78H258.195L247.102 54.4375L247.57 77.5C247.57 77.8333 247.372 78 246.977 78ZM277.195 78H270.008C269.799 78 269.695 77.8958 269.695 77.6875L269.82 33.7188C269.82 33.5521 269.904 33.4688 270.07 33.4688H290.57C290.779 33.4688 290.883 33.5521 290.883 33.7188V40.9375C290.883 41.1042 290.799 41.1875 290.633 41.1875H277.508V51.125H290.633C290.799 51.125 290.883 51.2292 290.883 51.4375L290.945 58.6875C290.945 58.8542 290.841 58.9375 290.633 58.9375H277.508V77.6875C277.508 77.8958 277.404 78 277.195 78Z" fill="black"/>
<path d="M193.539 135.625C191.227 135.625 189.112 135.042 187.195 133.875C185.299 132.708 183.789 131.146 182.664 129.188C181.56 127.208 181.008 125.01 181.008 122.594L181.07 102.625C181.07 100.25 181.612 98.1042 182.695 96.1875C183.779 94.25 185.268 92.6979 187.164 91.5312C189.081 90.3438 191.206 89.75 193.539 89.75C195.914 89.75 198.029 90.3229 199.883 91.4688C201.758 92.6146 203.247 94.1667 204.352 96.125C205.477 98.0625 206.039 100.229 206.039 102.625V105.562C206.039 105.729 205.956 105.812 205.789 105.812H198.602C198.435 105.812 198.352 105.729 198.352 105.562V102.625C198.352 101.208 197.893 99.9896 196.977 98.9688C196.06 97.9479 194.914 97.4375 193.539 97.4375C192.018 97.4375 190.852 97.9583 190.039 99C189.227 100.042 188.82 101.25 188.82 102.625V122.594C188.82 124.156 189.279 125.438 190.195 126.438C191.112 127.417 192.227 127.906 193.539 127.906C194.914 127.906 196.06 127.365 196.977 126.281C197.893 125.177 198.352 123.948 198.352 122.594V119.625C198.352 119.458 198.435 119.375 198.602 119.375H205.852C206.018 119.375 206.102 119.458 206.102 119.625V122.594C206.102 124.99 205.539 127.177 204.414 129.156C203.268 131.115 201.758 132.688 199.883 133.875C198.008 135.042 195.893 135.625 193.539 135.625ZM218.258 135H211.008C210.841 135 210.758 134.896 210.758 134.688L210.82 90.7188C210.82 90.5521 210.924 90.4688 211.133 90.4688H218.258C218.466 90.4688 218.57 90.5521 218.57 90.7188L218.508 108.125H228.102V90.7188C228.102 90.5521 228.185 90.4688 228.352 90.4688H235.477C235.685 90.4688 235.789 90.5521 235.789 90.7188L235.914 134.688C235.914 134.896 235.81 135 235.602 135H228.414C228.206 135 228.102 134.896 228.102 134.688V115.875H218.508V134.688C218.508 134.896 218.424 135 218.258 135ZM248.695 135H241.445C241.237 135 241.133 134.896 241.133 134.688L241.195 90.7188C241.195 90.5521 241.279 90.4688 241.445 90.4688H248.633C248.799 90.4688 248.883 90.5521 248.883 90.7188L248.945 134.688C248.945 134.896 248.862 135 248.695 135ZM275.508 135H254.82C254.654 135 254.57 134.896 254.57 134.688L254.633 90.7812C254.633 90.5729 254.737 90.4688 254.945 90.4688H262.07C262.279 90.4688 262.383 90.5729 262.383 90.7812L262.32 127.125H275.508C275.716 127.125 275.82 127.229 275.82 127.438V134.688C275.82 134.896 275.716 135 275.508 135ZM300.945 135H280.258C280.091 135 280.008 134.896 280.008 134.688L280.07 90.7188C280.07 90.5521 280.154 90.4688 280.32 90.4688H300.883C301.049 90.4688 301.133 90.5729 301.133 90.7812V97.9375C301.133 98.1042 301.049 98.1875 300.883 98.1875H287.758V108.188H300.883C301.049 108.188 301.133 108.271 301.133 108.438L301.195 115.688C301.195 115.854 301.112 115.938 300.945 115.938H287.758V127.125H300.945C301.112 127.125 301.195 127.229 301.195 127.438V134.75C301.195 134.917 301.112 135 300.945 135Z" fill="black"/>
<defs>
<radialGradient id="paint0_radial_2687_3092" cx="0" cy="0" r="1" gradientUnits="userSpaceOnUse" gradientTransform="translate(159 86) rotate(90.7639) scale(75.0067 99.704)">
<stop stop-color="#B9B9B9"/>
<stop offset="1" stop-color="white"/>
</radialGradient>
</defs>
</svg>
