<svg width="337" height="176" viewBox="0 0 337 176" fill="none" xmlns="http://www.w3.org/2000/svg">
<ellipse cx="168.5" cy="88" rx="168.5" ry="88" fill="url(#paint0_radial_2809_2550)" fill-opacity="0.5"/>
<path d="M151.774 51.387L138.944 58.9897C136.546 54.8263 134.261 52.111 132.088 50.8439C129.826 49.3958 126.907 48.6717 123.332 48.6717C118.942 48.6717 115.299 49.9162 112.403 52.4052C109.506 54.8489 108.058 57.9262 108.058 61.6371C108.058 66.7508 111.86 70.869 119.462 73.9915L129.916 78.268C138.424 81.7074 144.646 85.916 148.584 90.894C152.521 95.8267 154.489 101.891 154.489 109.086C154.489 118.725 151.276 126.69 144.85 132.981C138.379 139.316 130.346 142.484 120.752 142.484C111.656 142.484 104.144 139.791 98.2155 134.406C92.3777 129.021 88.7348 121.441 87.2866 111.666L103.307 108.136C104.031 114.29 105.298 118.544 107.108 120.898C110.366 125.423 115.118 127.686 121.363 127.686C126.296 127.686 130.391 126.034 133.65 122.73C136.908 119.427 138.537 115.241 138.537 110.172C138.537 108.136 138.243 106.28 137.655 104.606C137.112 102.886 136.229 101.325 135.007 99.9222C133.831 98.4741 132.292 97.1391 130.391 95.9172C128.491 94.6501 126.228 93.4509 123.603 92.3195L113.489 88.1109C99.1433 82.0468 91.9704 73.1769 91.9704 61.5013C91.9704 53.6271 94.9799 47.0426 100.999 41.7478C107.018 36.4078 114.507 33.7378 123.467 33.7378C135.55 33.7378 144.986 39.6209 151.774 51.387Z" fill="white"/>
<path fill-rule="evenodd" clip-rule="evenodd" d="M154.138 52.0063L138.317 61.3815L137.439 59.8571C135.077 55.757 132.978 53.3748 131.213 52.3449L131.182 52.3269L131.152 52.3076C129.247 51.0886 126.682 50.4095 123.332 50.4095C119.292 50.4095 116.07 51.5451 113.535 53.7231L113.523 53.7334C111.009 55.855 109.796 58.4506 109.796 61.6371C109.796 65.6655 112.728 69.3466 120.122 72.3838C120.122 72.3839 120.122 72.3837 120.122 72.3838L130.567 76.6569C130.569 76.6574 130.57 76.6578 130.571 76.6582C139.238 80.1625 145.756 84.5186 149.945 89.8135C154.159 95.096 156.227 101.557 156.227 109.086C156.227 119.155 152.852 127.58 146.066 134.222C139.249 140.896 130.771 144.222 120.752 144.222C111.287 144.222 103.339 141.408 97.047 135.692L97.0372 135.683C90.8421 129.968 87.0593 121.99 85.5676 111.92L85.3301 110.317L104.808 106.026L105.032 107.933C105.752 114.047 106.983 117.886 108.485 119.838L108.502 119.86L108.518 119.882C111.407 123.895 115.599 125.948 121.363 125.948C125.863 125.948 129.503 124.46 132.412 121.51C135.319 118.563 136.799 114.83 136.799 110.172C136.799 108.304 136.53 106.646 136.015 105.182L136.006 105.156L135.998 105.129C135.529 103.645 134.767 102.292 133.697 101.064L133.677 101.041L133.659 101.018C132.62 99.7392 131.229 98.5216 129.452 97.379L129.427 97.3633C127.635 96.1683 125.472 95.018 122.925 93.9196L112.812 89.7115C105.468 86.6069 99.8184 82.7265 95.9988 78.0031C92.1559 73.2511 90.2326 67.7267 90.2326 61.5013C90.2326 53.1185 93.4638 46.0629 99.8481 40.4454C106.221 34.7923 114.135 32 123.467 32C136.259 32 146.227 38.295 153.279 50.5186L154.138 52.0063ZM123.603 92.3195C126.228 93.4508 128.491 94.6501 130.391 95.9172C132.292 97.1391 133.831 98.4741 135.007 99.9222C136.229 101.325 137.112 102.886 137.655 104.606C138.243 106.28 138.537 108.136 138.537 110.172C138.537 115.241 136.908 119.427 133.65 122.73C130.391 126.034 126.296 127.686 121.363 127.686C115.118 127.686 110.366 125.423 107.108 120.898C105.473 118.772 104.28 115.094 103.532 109.866C103.452 109.307 103.377 108.73 103.307 108.136L87.2866 111.666C88.7347 121.441 92.3777 129.021 98.2155 134.406C104.144 139.791 111.656 142.484 120.752 142.484C130.346 142.484 138.379 139.316 144.85 132.98C151.276 126.69 154.489 118.725 154.489 109.086C154.489 101.891 152.521 95.8267 148.584 90.894C144.646 85.916 138.424 81.7073 129.916 78.268L119.462 73.9915C111.86 70.8689 108.058 66.7508 108.058 61.6371C108.058 57.9262 109.506 54.8489 112.403 52.4052C115.299 49.9162 118.942 48.6717 123.332 48.6717C126.907 48.6717 129.826 49.3958 132.088 50.8439C134.06 51.9942 136.125 54.3377 138.284 57.8746C138.503 58.234 138.723 58.6057 138.944 58.9897L151.774 51.387C151.57 51.0332 151.363 50.6848 151.155 50.3418C151.064 50.1923 150.972 50.0439 150.88 49.8965C144.167 39.124 135.029 33.7378 123.467 33.7378C114.507 33.7378 107.017 36.4078 100.999 41.7478C94.9798 47.0425 91.9704 53.627 91.9704 61.5013C91.9704 73.1769 99.1432 82.0468 113.489 88.1108L123.603 92.3195Z" fill="white"/>
<path d="M67.3973 35.7742V103.588C67.3973 111.688 66.8317 117.73 65.7003 121.712C64.5689 126.238 62.6456 130.062 59.9304 133.184C54.6356 139.384 47.6212 142.484 38.8871 142.484C32.28 142.484 26.1028 140.764 20.3555 137.325L28.094 123.817C31.9406 126.396 35.5383 127.686 38.8871 127.686C43.5936 127.686 46.8519 125.898 48.662 122.323C50.5627 118.748 51.5131 112.503 51.5131 103.588V35.7742H67.3973Z" fill="white"/>
<path fill-rule="evenodd" clip-rule="evenodd" d="M69.135 34.0364V103.588C69.135 111.709 68.5736 117.939 67.3794 122.16C66.1899 126.903 64.1553 130.972 61.2467 134.319C55.5965 140.931 48.0856 144.222 38.887 144.222C31.9611 144.222 25.4761 142.414 19.463 138.816L18 137.941L27.5129 121.335L29.0617 122.373C32.7282 124.832 35.9917 125.948 38.887 125.948C41.0243 125.948 42.7112 125.542 44.0248 124.822C45.3224 124.11 46.3518 123.039 47.1116 121.538L47.1273 121.507C48.8095 118.343 49.7752 112.483 49.7752 103.588V34.0364H69.135ZM59.9303 133.184C62.6456 130.062 64.5689 126.238 65.7002 121.712C66.8316 117.73 67.3973 111.688 67.3973 103.588V35.7742H51.513V103.588C51.513 112.503 50.5626 118.748 48.662 122.323C46.8518 125.898 43.5935 127.686 38.887 127.686C35.9683 127.686 32.8606 126.706 29.5638 124.747C29.0779 124.458 28.5879 124.148 28.0939 123.816L20.3554 137.325C20.7849 137.582 21.2167 137.829 21.651 138.067C21.7226 138.106 21.7943 138.145 21.866 138.184C27.1813 141.051 32.855 142.484 38.887 142.484C47.6211 142.484 54.6355 139.384 59.9303 133.184Z" fill="white"/>
<path d="M277.196 82.25H270.008C269.8 82.25 269.696 82.1458 269.696 81.9375L269.821 37.9688C269.821 37.8021 269.904 37.7188 270.071 37.7188H290.571C290.779 37.7188 290.883 37.8021 290.883 37.9688V45.1875C290.883 45.3542 290.8 45.4375 290.633 45.4375H277.508V55.375H290.633C290.8 55.375 290.883 55.4792 290.883 55.6875L290.946 62.9375C290.946 63.1042 290.842 63.1875 290.633 63.1875H277.508V81.9375C277.508 82.1458 277.404 82.25 277.196 82.25Z" fill="white"/>
<path d="M246.977 82.25H240.571C240.237 82.25 240.071 82.1042 240.071 81.8125L240.008 38.2188C240.008 37.8854 240.175 37.7188 240.508 37.7188H246.29L257.102 62.9375L256.79 38.2188C256.79 37.8854 256.977 37.7188 257.352 37.7188H263.696C263.946 37.7188 264.071 37.8854 264.071 38.2188L264.133 81.875C264.133 82.125 264.029 82.25 263.821 82.25H258.196L247.102 58.6875L247.571 81.75C247.571 82.0833 247.373 82.25 246.977 82.25Z" fill="white"/>
<path d="M222.602 82.875C220.331 82.875 218.237 82.2917 216.321 81.125C214.425 79.9583 212.894 78.4062 211.727 76.4688C210.581 74.5104 210.008 72.3646 210.008 70.0312L210.071 49.75C210.071 47.375 210.644 45.2396 211.79 43.3438C212.915 41.4271 214.435 39.8958 216.352 38.75C218.269 37.5833 220.352 37 222.602 37C224.935 37 227.029 37.5729 228.883 38.7188C230.758 39.8646 232.258 41.4062 233.383 43.3438C234.529 45.2604 235.102 47.3958 235.102 49.75L235.165 70.0312C235.165 72.3646 234.602 74.5 233.477 76.4375C232.331 78.3958 230.81 79.9583 228.915 81.125C227.019 82.2917 224.915 82.875 222.602 82.875ZM222.602 75.1562C223.894 75.1562 225.019 74.6354 225.977 73.5938C226.935 72.5312 227.415 71.3438 227.415 70.0312L227.352 49.75C227.352 48.3333 226.904 47.1354 226.008 46.1562C225.112 45.1771 223.977 44.6875 222.602 44.6875C221.29 44.6875 220.165 45.1667 219.227 46.125C218.29 47.0833 217.821 48.2917 217.821 49.75V70.0312C217.821 71.4271 218.29 72.6354 219.227 73.6562C220.165 74.6562 221.29 75.1562 222.602 75.1562Z" fill="white"/>
<path d="M193.54 82.875C191.227 82.875 189.112 82.2917 187.196 81.125C185.3 79.9583 183.79 78.3958 182.665 76.4375C181.56 74.4583 181.008 72.2604 181.008 69.8438L181.071 49.875C181.071 47.5 181.612 45.3542 182.696 43.4375C183.779 41.5 185.269 39.9479 187.165 38.7812C189.081 37.5938 191.206 37 193.54 37C195.915 37 198.029 37.5729 199.883 38.7188C201.758 39.8646 203.248 41.4167 204.352 43.375C205.477 45.3125 206.04 47.4792 206.04 49.875V52.8125C206.04 52.9792 205.956 53.0625 205.79 53.0625H198.602C198.435 53.0625 198.352 52.9792 198.352 52.8125V49.875C198.352 48.4583 197.894 47.2396 196.977 46.2188C196.06 45.1979 194.915 44.6875 193.54 44.6875C192.019 44.6875 190.852 45.2083 190.04 46.25C189.227 47.2917 188.821 48.5 188.821 49.875V69.8438C188.821 71.4062 189.279 72.6875 190.196 73.6875C191.112 74.6667 192.227 75.1562 193.54 75.1562C194.915 75.1562 196.06 74.6146 196.977 73.5312C197.894 72.4271 198.352 71.1979 198.352 69.8438V66.875C198.352 66.7083 198.435 66.625 198.602 66.625H205.852C206.019 66.625 206.102 66.7083 206.102 66.875V69.8438C206.102 72.2396 205.54 74.4271 204.415 76.4062C203.269 78.3646 201.758 79.9375 199.883 81.125C198.008 82.2917 195.894 82.875 193.54 82.875Z" fill="white"/>
<path d="M300.946 139.25H280.258C280.092 139.25 280.008 139.146 280.008 138.938L280.071 94.9688C280.071 94.8021 280.154 94.7188 280.321 94.7188H300.883C301.05 94.7188 301.133 94.8229 301.133 95.0312V102.188C301.133 102.354 301.05 102.438 300.883 102.438H287.758V112.438H300.883C301.05 112.438 301.133 112.521 301.133 112.688L301.196 119.938C301.196 120.104 301.112 120.188 300.946 120.188H287.758V131.375H300.946C301.112 131.375 301.196 131.479 301.196 131.688V139C301.196 139.167 301.112 139.25 300.946 139.25Z" fill="white"/>
<path d="M275.508 139.25H254.821C254.654 139.25 254.571 139.146 254.571 138.938L254.633 95.0312C254.633 94.8229 254.737 94.7188 254.946 94.7188H262.071C262.279 94.7188 262.383 94.8229 262.383 95.0312L262.321 131.375H275.508C275.717 131.375 275.821 131.479 275.821 131.688V138.938C275.821 139.146 275.717 139.25 275.508 139.25Z" fill="white"/>
<path d="M248.696 139.25H241.446C241.237 139.25 241.133 139.146 241.133 138.938L241.196 94.9688C241.196 94.8021 241.279 94.7188 241.446 94.7188H248.633C248.8 94.7188 248.883 94.8021 248.883 94.9688L248.946 138.938C248.946 139.146 248.862 139.25 248.696 139.25Z" fill="white"/>
<path d="M218.258 139.25H211.008C210.842 139.25 210.758 139.146 210.758 138.938L210.821 94.9688C210.821 94.8021 210.925 94.7188 211.133 94.7188H218.258C218.467 94.7188 218.571 94.8021 218.571 94.9688L218.508 112.375H228.102V94.9688C228.102 94.8021 228.185 94.7188 228.352 94.7188H235.477C235.685 94.7188 235.79 94.8021 235.79 94.9688L235.915 138.938C235.915 139.146 235.81 139.25 235.602 139.25H228.415C228.206 139.25 228.102 139.146 228.102 138.938V120.125H218.508V138.938C218.508 139.146 218.425 139.25 218.258 139.25Z" fill="white"/>
<path d="M193.54 139.875C191.227 139.875 189.112 139.292 187.196 138.125C185.3 136.958 183.79 135.396 182.665 133.438C181.56 131.458 181.008 129.26 181.008 126.844L181.071 106.875C181.071 104.5 181.612 102.354 182.696 100.438C183.779 98.5 185.269 96.9479 187.165 95.7812C189.081 94.5938 191.206 94 193.54 94C195.915 94 198.029 94.5729 199.883 95.7188C201.758 96.8646 203.248 98.4167 204.352 100.375C205.477 102.312 206.04 104.479 206.04 106.875V109.812C206.04 109.979 205.956 110.062 205.79 110.062H198.602C198.435 110.062 198.352 109.979 198.352 109.812V106.875C198.352 105.458 197.894 104.24 196.977 103.219C196.06 102.198 194.915 101.688 193.54 101.688C192.019 101.688 190.852 102.208 190.04 103.25C189.227 104.292 188.821 105.5 188.821 106.875V126.844C188.821 128.406 189.279 129.688 190.196 130.688C191.112 131.667 192.227 132.156 193.54 132.156C194.915 132.156 196.06 131.615 196.977 130.531C197.894 129.427 198.352 128.198 198.352 126.844V123.875C198.352 123.708 198.435 123.625 198.602 123.625H205.852C206.019 123.625 206.102 123.708 206.102 123.875V126.844C206.102 129.24 205.54 131.427 204.415 133.406C203.269 135.365 201.758 136.938 199.883 138.125C198.008 139.292 195.894 139.875 193.54 139.875Z" fill="white"/>
<defs>
<radialGradient id="paint0_radial_2809_2550" cx="0" cy="0" r="1" gradientUnits="userSpaceOnUse" gradientTransform="translate(168.5 88) rotate(93.2679) scale(76.5275 146.802)">
<stop stop-color="#5C5C5C"/>
<stop offset="1" stop-color="#3F3F3B" stop-opacity="0"/>
</radialGradient>
</defs>
</svg>
