<svg width="88" height="52" viewBox="0 0 88 52" fill="none" xmlns="http://www.w3.org/2000/svg">
<path d="M37.3871 25.5906L42.3032 22.6584L42.0365 22.193C39.8452 18.37 36.7477 16.4011 32.7728 16.4011C29.873 16.4011 27.4137 17.2744 25.4334 19.0425C23.4495 20.7995 22.4455 23.0062 22.4455 25.628C22.4455 27.5751 23.0431 29.303 24.2372 30.7892C25.4242 32.2665 27.1796 33.4802 29.4618 34.4512L32.6044 35.7673C33.3958 36.1109 34.0678 36.4706 34.6248 36.8444L34.6323 36.8493C35.1846 37.2067 35.6167 37.5875 35.9396 37.9875L35.9454 37.9947L35.9515 38.0017C36.284 38.386 36.5207 38.8089 36.6664 39.2733L36.669 39.2816L36.6719 39.2898C36.8317 39.7478 36.9156 40.2661 36.9156 40.8506C36.9156 42.3075 36.4555 43.475 35.5524 44.3966C34.6483 45.3193 33.5173 45.7846 32.1189 45.7846C30.3279 45.7846 29.0252 45.1424 28.1275 43.8875L28.1225 43.8805L28.1173 43.8737C27.6506 43.263 27.2679 42.0625 27.0444 40.1502L26.9746 39.5536L20.9221 40.8959L20.9959 41.3973C21.4594 44.5466 22.6349 47.0421 24.5599 48.8295L24.563 48.8323C26.5181 50.6199 28.9878 51.5 31.9291 51.5C35.0422 51.5 37.6767 50.4599 39.795 48.3725C41.9036 46.295 42.9525 43.6601 42.9525 40.5109C42.9525 38.1559 42.31 36.1353 41.0003 34.4831C39.6987 32.827 37.6734 31.4646 34.9801 30.3686L34.9791 30.3682L31.7333 29.0317C29.4355 28.0818 28.5246 26.9304 28.5246 25.6705C28.5246 24.6739 28.9015 23.8621 29.6828 23.1985L29.6865 23.1953C30.4741 22.5141 31.4753 22.1589 32.7306 22.1589C33.7717 22.1589 34.5687 22.3713 35.1606 22.7526L35.17 22.7586L35.1796 22.7643C35.7282 23.0864 36.3802 23.8314 37.1142 25.1138L37.3871 25.5906Z" fill="white"/>
<path fill-rule="evenodd" clip-rule="evenodd" d="M15.8896 38.7912V17.0381H9.8738V38.7912C9.8738 41.5732 9.57372 43.4061 9.05098 44.3957L9.04611 44.4054C8.81 44.8748 8.49014 45.2097 8.08691 45.4323C7.67874 45.6577 7.15455 45.7846 6.49042 45.7846C5.59072 45.7846 4.57663 45.4356 3.43731 44.6666L2.95604 44.3418L0 49.5355L0.454624 49.8093C2.32312 50.9348 4.33826 51.5 6.49042 51.5C9.34877 51.5 11.6827 50.4709 13.4384 48.4027C14.3423 47.3559 14.9745 46.0834 15.3441 44.6C15.7152 43.2797 15.8896 41.3313 15.8896 38.7912Z" fill="white"/>
<path d="M80.5422 31.1849H78.3088C78.2441 31.1849 78.2117 31.1523 78.2117 31.0871L78.2505 17.3353C78.2505 17.2832 78.2764 17.2571 78.3282 17.2571H84.6984C84.7631 17.2571 84.7955 17.2832 84.7955 17.3353V19.5931C84.7955 19.6452 84.7696 19.6713 84.7178 19.6713H80.6394V22.7794H84.7178C84.7696 22.7794 84.7955 22.8119 84.7955 22.8771L84.8149 25.1446C84.8149 25.1968 84.7825 25.2228 84.7178 25.2228H80.6394V31.0871C80.6394 31.1523 80.607 31.1849 80.5422 31.1849Z" fill="white"/>
<path d="M71.1521 31.1849H69.1614C69.0579 31.1849 69.0061 31.1393 69.0061 31.0481L68.9866 17.4135C68.9866 17.3092 69.0384 17.2571 69.142 17.2571H70.9385L74.2983 25.1446L74.2012 17.4135C74.2012 17.3092 74.2595 17.2571 74.376 17.2571H76.3473C76.425 17.2571 76.4638 17.3092 76.4638 17.4135L76.4832 31.0676C76.4832 31.1458 76.4508 31.1849 76.3861 31.1849H74.6382L71.1909 23.8154L71.3366 31.0285C71.3366 31.1328 71.2751 31.1849 71.1521 31.1849Z" fill="white"/>
<path d="M63.5778 31.3804C62.8722 31.3804 62.2216 31.1979 61.626 30.833C61.0369 30.4681 60.5611 29.9827 60.1986 29.3767C59.8425 28.7642 59.6645 28.0931 59.6645 27.3633L59.6839 21.0201C59.6839 20.2772 59.8619 19.6094 60.218 19.0164C60.5676 18.417 61.0401 17.938 61.6357 17.5797C62.2313 17.2148 62.8787 17.0323 63.5778 17.0323C64.3029 17.0323 64.9535 17.2115 65.5297 17.5699C66.1123 17.9283 66.5784 18.4104 66.928 19.0164C67.284 19.6159 67.4621 20.2838 67.4621 21.0201L67.4815 27.3633C67.4815 28.0931 67.3067 28.761 66.9571 29.3669C66.6011 29.9794 66.1285 30.4681 65.5394 30.833C64.9503 31.1979 64.2964 31.3804 63.5778 31.3804ZM63.5778 28.9662C63.9792 28.9662 64.3288 28.8033 64.6266 28.4775C64.9244 28.1452 65.0733 27.7738 65.0733 27.3633L65.0538 21.0201C65.0538 20.577 64.9147 20.2023 64.6363 19.8961C64.3579 19.5898 64.0051 19.4367 63.5778 19.4367C63.17 19.4367 62.8204 19.5866 62.5291 19.8863C62.2378 20.186 62.0921 20.5639 62.0921 21.0201V27.3633C62.0921 27.7999 62.2378 28.1778 62.5291 28.4971C62.8204 28.8098 63.17 28.9662 63.5778 28.9662Z" fill="white"/>
<path d="M54.547 31.3804C53.8284 31.3804 53.1713 31.1979 52.5757 30.833C51.9866 30.4681 51.5173 29.9794 51.1677 29.3669C50.8246 28.7479 50.653 28.0605 50.653 27.3047L50.6725 21.0592C50.6725 20.3163 50.8408 19.6452 51.1774 19.0457C51.514 18.4398 51.9769 17.9543 52.566 17.5894C53.1616 17.218 53.8219 17.0323 54.547 17.0323C55.285 17.0323 55.9421 17.2115 56.5182 17.5699C57.1009 17.9283 57.5637 18.4137 57.9069 19.0262C58.2564 19.6322 58.4312 20.3098 58.4312 21.0592V21.9779C58.4312 22.03 58.4053 22.0561 58.3535 22.0561H56.1201C56.0683 22.0561 56.0424 22.03 56.0424 21.9779V21.0592C56.0424 20.6161 55.9 20.2349 55.6152 19.9156C55.3303 19.5963 54.9743 19.4367 54.547 19.4367C54.0744 19.4367 53.7119 19.5996 53.4594 19.9254C53.2069 20.2512 53.0807 20.6291 53.0807 21.0592V27.3047C53.0807 27.7934 53.2231 28.1941 53.508 28.5068C53.7928 28.8131 54.1391 28.9662 54.547 28.9662C54.9743 28.9662 55.3303 28.7968 55.6152 28.458C55.9 28.1126 56.0424 27.7282 56.0424 27.3047V26.3761C56.0424 26.324 56.0683 26.298 56.1201 26.298H58.373C58.4247 26.298 58.4506 26.324 58.4506 26.3761V27.3047C58.4506 28.054 58.2759 28.7382 57.9263 29.3572C57.5702 29.9697 57.1009 30.4616 56.5182 30.833C55.9356 31.1979 55.2785 31.3804 54.547 31.3804Z" fill="white"/>
<path d="M87.9223 49.0124H81.4939C81.4421 49.0124 81.4162 48.9798 81.4162 48.9147L81.4356 35.1628C81.4356 35.1107 81.4615 35.0846 81.5133 35.0846H87.9029C87.9547 35.0846 87.9806 35.1172 87.9806 35.1824V37.4206C87.9806 37.4727 87.9547 37.4988 87.9029 37.4988H83.8244V40.6264H87.9029C87.9547 40.6264 87.9806 40.6525 87.9806 40.7046L88 42.9721C88 43.0243 87.9741 43.0503 87.9223 43.0503H83.8244V46.5494H87.9223C87.9741 46.5494 88 46.582 88 46.6471V48.9342C88 48.9863 87.9741 49.0124 87.9223 49.0124Z" fill="white"/>
<path d="M80.0179 49.0124H73.5894C73.5377 49.0124 73.5118 48.9798 73.5118 48.9147L73.5312 35.1824C73.5312 35.1172 73.5636 35.0846 73.6283 35.0846H75.8423C75.907 35.0846 75.9394 35.1172 75.9394 35.1824L75.92 46.5494H80.0179C80.0826 46.5494 80.115 46.582 80.115 46.6471V48.9147C80.115 48.9798 80.0826 49.0124 80.0179 49.0124Z" fill="white"/>
<path d="M71.6862 49.0124H69.4333C69.3686 49.0124 69.3362 48.9798 69.3362 48.9147L69.3556 35.1628C69.3556 35.1107 69.3815 35.0846 69.4333 35.0846H71.6668C71.7185 35.0846 71.7444 35.1107 71.7444 35.1628L71.7639 48.9147C71.7639 48.9798 71.738 49.0124 71.6862 49.0124Z" fill="white"/>
<path d="M62.2281 49.0124H59.9752C59.9234 49.0124 59.8975 48.9798 59.8975 48.9147L59.917 35.1628C59.917 35.1107 59.9493 35.0846 60.0141 35.0846H62.2281C62.2928 35.0846 62.3252 35.1107 62.3252 35.1628L62.3058 40.6069H65.2869V35.1628C65.2869 35.1107 65.3128 35.0846 65.3646 35.0846H67.5786C67.6434 35.0846 67.6757 35.1107 67.6757 35.1628L67.7146 48.9147C67.7146 48.9798 67.6822 49.0124 67.6175 49.0124H65.384C65.3193 49.0124 65.2869 48.9798 65.2869 48.9147V43.0308H62.3058V48.9147C62.3058 48.9798 62.2799 49.0124 62.2281 49.0124Z" fill="white"/>
<path d="M54.547 49.2079C53.8284 49.2079 53.1713 49.0254 52.5757 48.6606C51.9866 48.2957 51.5173 47.807 51.1677 47.1945C50.8246 46.5755 50.653 45.888 50.653 45.1322L50.6725 38.8867C50.6725 38.1439 50.8408 37.4727 51.1774 36.8733C51.514 36.2673 51.9769 35.7819 52.566 35.417C53.1616 35.0456 53.8219 34.8599 54.547 34.8599C55.285 34.8599 55.9421 35.039 56.5182 35.3974C57.1009 35.7558 57.5637 36.2412 57.9069 36.8537C58.2564 37.4597 58.4312 38.1374 58.4312 38.8867V39.8054C58.4312 39.8576 58.4053 39.8836 58.3535 39.8836H56.1201C56.0683 39.8836 56.0424 39.8576 56.0424 39.8054V38.8867C56.0424 38.4436 55.9 38.0624 55.6152 37.7431C55.3303 37.4239 54.9743 37.2642 54.547 37.2642C54.0744 37.2642 53.7119 37.4271 53.4594 37.7529C53.2069 38.0787 53.0807 38.4566 53.0807 38.8867V45.1322C53.0807 45.6209 53.2231 46.0216 53.508 46.3344C53.7928 46.6406 54.1391 46.7937 54.547 46.7937C54.9743 46.7937 55.3303 46.6243 55.6152 46.2855C55.9 45.9402 56.0424 45.5557 56.0424 45.1322V44.2037C56.0424 44.1515 56.0683 44.1255 56.1201 44.1255H58.373C58.4247 44.1255 58.4506 44.1515 58.4506 44.2037V45.1322C58.4506 45.8815 58.2759 46.5657 57.9263 47.1847C57.5702 47.7972 57.1009 48.2891 56.5182 48.6606C55.9356 49.0254 55.2785 49.2079 54.547 49.2079Z" fill="white"/>
<path d="M36.7244 11.9177H34.9147C34.8729 11.9177 34.852 11.8914 34.852 11.8388V9.94637H31.3815C31.3397 9.94637 31.3188 9.92009 31.3188 9.86752V8.09337L34.8128 0.744417C34.839 0.702362 34.8729 0.681335 34.9147 0.681335H36.7244C36.7557 0.681335 36.7714 0.702362 36.7714 0.744417L36.787 8.0224H37.9151C37.9674 8.0224 37.9935 8.05131 37.9935 8.10914V9.86752C37.9935 9.92009 37.9726 9.94637 37.9308 9.94637H36.787V11.8388C36.787 11.8914 36.7661 11.9177 36.7244 11.9177ZM33.2147 8.0224H34.852V4.50563L33.2147 8.0224Z" fill="url(#paint0_linear_3067_2767)"/>
<path d="M30.4414 11.9177H24.4561C24.4039 11.9177 24.3778 11.8914 24.3778 11.8388V10.0095C24.3778 9.98845 24.3882 9.96742 24.4091 9.9464L28.3732 4.47411C28.4463 4.37423 28.5063 4.24807 28.5534 4.09562C28.6056 3.93792 28.6317 3.80124 28.6317 3.6856C28.6317 3.37019 28.5194 3.08107 28.2948 2.81823C28.0702 2.55539 27.7856 2.42397 27.4409 2.42397C27.1119 2.42397 26.8325 2.55014 26.6027 2.80246C26.3729 3.05478 26.258 3.37545 26.258 3.76445V4.55296C26.258 4.60553 26.2318 4.63181 26.1796 4.63181H24.3778C24.336 4.63181 24.3151 4.60553 24.3151 4.55296V3.76445C24.3151 3.15992 24.464 2.61059 24.7617 2.11645C25.0541 1.62232 25.438 1.23069 25.9133 0.941568C26.3885 0.647189 26.8977 0.5 27.4409 0.5C28.0154 0.5 28.5403 0.647189 29.0156 0.941568C29.4856 1.2412 29.8616 1.63283 30.1437 2.11645C30.4309 2.60007 30.5745 3.12312 30.5745 3.6856C30.5745 4.0378 30.5119 4.39789 30.3865 4.76586C30.2664 5.12858 30.0993 5.45187 29.8851 5.73573L26.8377 9.9464H30.4414C30.4884 9.9464 30.5119 9.96742 30.5119 10.0095V11.8388C30.5119 11.8914 30.4884 11.9177 30.4414 11.9177Z" fill="url(#paint1_linear_3067_2767)"/>
<path d="M19.9985 12.0754C19.3196 12.0754 18.7164 11.9282 18.1889 11.6338C17.6666 11.3394 17.2566 10.9478 16.9589 10.4589C16.6664 9.9648 16.5202 9.42335 16.5202 8.83459L16.5359 3.71714C16.5359 3.11787 16.6847 2.57905 16.9824 2.10068C17.2749 1.61706 17.6823 1.23069 18.2045 0.941568C18.7268 0.647189 19.3248 0.5 19.9985 0.5C20.6879 0.5 21.2886 0.644561 21.8004 0.933683C22.3122 1.2228 22.7144 1.6118 23.0068 2.10068C23.3045 2.5843 23.4534 3.12312 23.4534 3.71714L23.469 8.83459C23.469 9.41809 23.3228 9.95691 23.0303 10.451C22.7326 10.9452 22.3227 11.3394 21.8004 11.6338C21.2833 11.9282 20.6827 12.0754 19.9985 12.0754ZM21.5262 8.83459L21.5105 3.71714C21.5105 3.33865 21.3695 3.03113 21.0875 2.79457C20.8107 2.55802 20.4477 2.43974 19.9985 2.43974C19.5389 2.43974 19.1707 2.55802 18.8939 2.79457C18.6171 3.03113 18.4787 3.33865 18.4787 3.71714V8.83459C18.4787 9.23411 18.6171 9.54951 18.8939 9.78081C19.1707 10.0121 19.5389 10.1278 19.9985 10.1278C20.4477 10.1278 20.8133 10.0121 21.0953 9.78081C21.3826 9.54951 21.5262 9.23411 21.5262 8.83459Z" fill="url(#paint2_linear_3067_2767)"/>
<path d="M15.4156 11.9177H9.43034C9.37812 11.9177 9.352 11.8914 9.352 11.8388V10.0095C9.352 9.98845 9.36245 9.96742 9.38334 9.9464L13.3474 4.47411C13.4205 4.37423 13.4806 4.24807 13.5276 4.09562C13.5798 3.93792 13.6059 3.80124 13.6059 3.6856C13.6059 3.37019 13.4936 3.08107 13.269 2.81823C13.0445 2.55539 12.7598 2.42397 12.4151 2.42397C12.0861 2.42397 11.8067 2.55014 11.5769 2.80246C11.3471 3.05478 11.2322 3.37545 11.2322 3.76445V4.55296C11.2322 4.60553 11.2061 4.63181 11.1538 4.63181H9.352C9.31022 4.63181 9.28933 4.60553 9.28933 4.55296V3.76445C9.28933 3.15992 9.43818 2.61059 9.73587 2.11645C10.0283 1.62232 10.4122 1.23069 10.8875 0.941568C11.3628 0.647189 11.872 0.5 12.4151 0.5C12.9896 0.5 13.5145 0.647189 13.9898 0.941568C14.4598 1.2412 14.8359 1.63283 15.1179 2.11645C15.4051 2.60007 15.5488 3.12312 15.5488 3.6856C15.5488 4.0378 15.4861 4.39789 15.3608 4.76586C15.2406 5.12858 15.0735 5.45187 14.8594 5.73573L11.8119 9.9464H15.4156C15.4626 9.9464 15.4861 9.96742 15.4861 10.0095V11.8388C15.4861 11.8914 15.4626 11.9177 15.4156 11.9177Z" fill="url(#paint3_linear_3067_2767)"/>
<defs>
<linearGradient id="paint0_linear_3067_2767" x1="44.1747" y1="-1.49832" x2="44.1747" y2="12.4899" gradientUnits="userSpaceOnUse">
<stop stop-color="#2A2401"/>
<stop offset="0.395679" stop-color="#9A8025"/>
<stop offset="1" stop-color="#EDE060"/>
</linearGradient>
<linearGradient id="paint1_linear_3067_2767" x1="44.1747" y1="-1.49832" x2="44.1747" y2="12.4899" gradientUnits="userSpaceOnUse">
<stop stop-color="#2A2401"/>
<stop offset="0.395679" stop-color="#9A8025"/>
<stop offset="1" stop-color="#EDE060"/>
</linearGradient>
<linearGradient id="paint2_linear_3067_2767" x1="44.1747" y1="-1.49832" x2="44.1747" y2="12.4899" gradientUnits="userSpaceOnUse">
<stop stop-color="#2A2401"/>
<stop offset="0.395679" stop-color="#9A8025"/>
<stop offset="1" stop-color="#EDE060"/>
</linearGradient>
<linearGradient id="paint3_linear_3067_2767" x1="44.1747" y1="-1.49832" x2="44.1747" y2="12.4899" gradientUnits="userSpaceOnUse">
<stop stop-color="#2A2401"/>
<stop offset="0.395679" stop-color="#9A8025"/>
<stop offset="1" stop-color="#EDE060"/>
</linearGradient>
</defs>
</svg>
