<svg width="72" height="72" viewBox="0 0 72 72" fill="none" xmlns="http://www.w3.org/2000/svg">
<path d="M6 9H24C27.1826 9 30.2348 10.2643 32.4853 12.5147C34.7357 14.7652 36 17.8174 36 21V63C36 60.6131 35.0518 58.3239 33.364 56.636C31.6761 54.9482 29.3869 54 27 54H6V9Z" stroke="white" stroke-width="4" stroke-linecap="round" stroke-linejoin="round"/>
<path d="M66 9H48C44.8174 9 41.7652 10.2643 39.5147 12.5147C37.2643 14.7652 36 17.8174 36 21V63C36 60.6131 36.9482 58.3239 38.636 56.636C40.3239 54.9482 42.6131 54 45 54H66V9Z" stroke="white" stroke-width="4" stroke-linecap="round" stroke-linejoin="round"/>
</svg>
