<svg width="24" height="25" viewBox="0 0 24 25" fill="none" xmlns="http://www.w3.org/2000/svg">
<path d="M20 16.5V7.5C20 6.96957 19.7893 6.46086 19.4142 6.08579C19.0392 5.71071 18.5305 5.5 18 5.5H6.00002C5.46959 5.5 4.96088 5.71071 4.58581 6.08579C4.21073 6.46086 4.00002 6.96957 4.00002 7.5V16.5M20 16.5H4.00002M20 16.5L21.28 19.05C21.3571 19.203 21.3936 19.3732 21.386 19.5444C21.3784 19.7155 21.327 19.8818 21.2366 20.0274C21.1463 20.1729 21.0201 20.2928 20.8701 20.3756C20.7201 20.4584 20.5513 20.5012 20.38 20.5H3.62002C3.44871 20.5012 3.27997 20.4584 3.12997 20.3756C2.97997 20.2928 2.85374 20.1729 2.7634 20.0274C2.67305 19.8818 2.62162 19.7155 2.61402 19.5444C2.60643 19.3732 2.64293 19.203 2.72002 19.05L4.00002 16.5" stroke="white" stroke-width="2" stroke-linecap="round" stroke-linejoin="round"/>
</svg>
